<svg width="536" height="300" viewBox="0 0 536 300" fill="none" xmlns="http://www.w3.org/2000/svg">
<path d="M126.971 181.981C129.974 181.981 132.408 179.546 132.408 176.543C132.408 173.54 129.974 171.106 126.971 171.106C123.968 171.106 121.533 173.54 121.533 176.543C121.533 179.546 123.968 181.981 126.971 181.981Z" fill="#E01974"/>
<path d="M114.823 208.59C118.146 208.59 120.839 205.897 120.839 202.574C120.839 199.252 118.146 196.558 114.823 196.558C111.501 196.558 108.807 199.252 108.807 202.574C108.807 205.897 111.501 208.59 114.823 208.59Z" fill="#E01974"/>
<path d="M143.168 161.735C146.171 161.735 148.605 159.3 148.605 156.297C148.605 153.294 146.171 150.86 143.168 150.86C140.165 150.86 137.73 153.294 137.73 156.297C137.73 159.3 140.165 161.735 143.168 161.735Z" fill="#E01974"/>
<path d="M162.719 142.415C165.722 142.415 168.157 139.98 168.157 136.977C168.157 133.974 165.722 131.54 162.719 131.54C159.716 131.54 157.282 133.974 157.282 136.977C157.282 139.98 159.716 142.415 162.719 142.415Z" fill="#E01974"/>
<path d="M185.742 125.293C188.361 125.293 190.485 123.169 190.485 120.55C190.485 117.93 188.361 115.806 185.742 115.806C183.122 115.806 180.998 117.93 180.998 120.55C180.998 123.169 183.122 125.293 185.742 125.293Z" fill="#E01974"/>
<path d="M213.392 112.567C216.011 112.567 218.135 110.443 218.135 107.823C218.135 105.204 216.011 103.08 213.392 103.08C210.772 103.08 208.648 105.204 208.648 107.823C208.648 110.443 210.772 112.567 213.392 112.567Z" fill="#E01974"/>
<path d="M240.348 105.856C242.967 105.856 245.091 103.733 245.091 101.113C245.091 98.4935 242.967 96.3699 240.348 96.3699C237.728 96.3699 235.604 98.4935 235.604 101.113C235.604 103.733 237.728 105.856 240.348 105.856Z" fill="#E01974"/>
<path d="M267.997 103.659C270.617 103.659 272.741 101.535 272.741 98.9157C272.741 96.296 270.617 94.1724 267.997 94.1724C265.378 94.1724 263.254 96.296 263.254 98.9157C263.254 101.535 265.378 103.659 267.997 103.659Z" fill="#E01974" fill-opacity="0.6"/>
<path d="M301.691 101.282C302.111 98.6959 300.355 96.2594 297.769 95.8397C295.183 95.4201 292.747 97.1761 292.327 99.762C291.907 102.348 293.664 104.784 296.249 105.204C298.835 105.624 301.272 103.868 301.691 101.282Z" fill="#E01974" fill-opacity="0.6"/>
<path d="M326.074 113.145C328.694 113.145 330.817 111.022 330.817 108.402C330.817 105.782 328.694 103.659 326.074 103.659C323.454 103.659 321.331 105.782 321.331 108.402C321.331 111.022 323.454 113.145 326.074 113.145Z" fill="#E01974" fill-opacity="0.5"/>
<path d="M352.683 125.293C355.303 125.293 357.426 123.169 357.426 120.55C357.426 117.93 355.303 115.806 352.683 115.806C350.063 115.806 347.94 117.93 347.94 120.55C347.94 123.169 350.063 125.293 352.683 125.293Z" fill="#E01974" fill-opacity="0.45"/>
<path d="M375.59 141.489C378.209 141.489 380.333 139.365 380.333 136.746C380.333 134.126 378.209 132.002 375.59 132.002C372.97 132.002 370.846 134.126 370.846 136.746C370.846 139.365 372.97 141.489 375.59 141.489Z" fill="#E01974" fill-opacity="0.4"/>
<path d="M397.571 161.619C400.191 161.619 402.314 159.496 402.314 156.876C402.314 154.256 400.191 152.133 397.571 152.133C394.951 152.133 392.828 154.256 392.828 156.876C392.828 159.496 394.951 161.619 397.571 161.619Z" fill="#E01974" fill-opacity="0.35"/>
<path d="M428.229 209.978C430.018 209.978 431.468 208.528 431.468 206.739C431.468 204.95 430.018 203.499 428.229 203.499C426.44 203.499 424.989 204.95 424.989 206.739C424.989 208.528 426.44 209.978 428.229 209.978Z" fill="#E01974" fill-opacity="0.25"/>
<path d="M436.559 237.744C438.348 237.744 439.798 236.293 439.798 234.504C439.798 232.715 438.348 231.265 436.559 231.265C434.769 231.265 433.319 232.715 433.319 234.504C433.319 236.293 434.769 237.744 436.559 237.744Z" fill="#E01974" fill-opacity="0.2"/>
<path d="M440.261 267.476C441.538 267.476 442.574 266.44 442.574 265.162C442.574 263.885 441.538 262.849 440.261 262.849C438.983 262.849 437.947 263.885 437.947 265.162C437.947 266.44 438.983 267.476 440.261 267.476Z" fill="#E01974" fill-opacity="0.15"/>
<path d="M437.947 299.985C438.969 299.985 439.798 299.157 439.798 298.134C439.798 297.112 438.969 296.283 437.947 296.283C436.925 296.283 436.096 297.112 436.096 298.134C436.096 299.157 436.925 299.985 437.947 299.985Z" fill="#FFD260" fill-opacity="0.1"/>
<path d="M415.387 183.948C417.431 183.948 419.089 182.29 419.089 180.246C419.089 178.201 417.431 176.543 415.387 176.543C413.342 176.543 411.685 178.201 411.685 180.246C411.685 182.29 413.342 183.948 415.387 183.948Z" fill="#EE2C7B" fill-opacity="0.25"/>
<path d="M90.5284 223.745C95.001 223.745 98.6267 220.119 98.6267 215.647C98.6267 211.174 95.001 207.549 90.5284 207.549C86.0558 207.549 82.4301 211.174 82.4301 215.647C82.4301 220.119 86.0558 223.745 90.5284 223.745Z" fill="#EE2C7B"/>
<path d="M101.287 193.55C105.377 193.55 108.692 190.235 108.692 186.146C108.692 182.057 105.377 178.742 101.287 178.742C97.1983 178.742 93.8833 182.057 93.8833 186.146C93.8833 190.235 97.1983 193.55 101.287 193.55Z" fill="#EE2C7B"/>
<path d="M118.178 165.668C122.268 165.668 125.583 162.353 125.583 158.264C125.583 154.175 122.268 150.86 118.178 150.86C114.089 150.86 110.774 154.175 110.774 158.264C110.774 162.353 114.089 165.668 118.178 165.668Z" fill="#EE2C7B"/>
<path d="M138.656 141.952C142.745 141.952 146.06 138.637 146.06 134.548C146.06 130.459 142.745 127.144 138.656 127.144C134.566 127.144 131.251 130.459 131.251 134.548C131.251 138.637 134.566 141.952 138.656 141.952Z" fill="#EE2C7B"/>
<path d="M164.107 121.359C168.197 121.359 171.512 118.044 171.512 113.955C171.512 109.866 168.197 106.551 164.107 106.551C160.018 106.551 156.703 109.866 156.703 113.955C156.703 118.044 160.018 121.359 164.107 121.359Z" fill="#EE2C7B"/>
<path d="M191.758 104.353C195.463 104.353 198.468 101.349 198.468 97.6432C198.468 93.9373 195.463 90.9331 191.758 90.9331C188.052 90.9331 185.048 93.9373 185.048 97.6432C185.048 101.349 188.052 104.353 191.758 104.353Z" fill="#EE2C7B"/>
<path d="M220.102 94.1723C223.808 94.1723 226.812 91.1681 226.812 87.4622C226.812 83.7564 223.808 80.7522 220.102 80.7522C216.396 80.7522 213.392 83.7564 213.392 87.4622C213.392 91.1681 216.396 94.1723 220.102 94.1723Z" fill="#EE2C7B"/>
<path d="M253.189 86.7677C256.512 86.7677 259.205 84.0742 259.205 80.7518C259.205 77.4293 256.512 74.7358 253.189 74.7358C249.867 74.7358 247.173 77.4293 247.173 80.7518C247.173 84.0742 249.867 86.7677 253.189 86.7677Z" fill="#EE2C7B" fill-opacity="0.7"/>
<path d="M285.583 86.7677C288.905 86.7677 291.598 84.0742 291.598 80.7518C291.598 77.4293 288.905 74.7358 285.583 74.7358C282.26 74.7358 279.567 77.4293 279.567 80.7518C279.567 84.0742 282.26 86.7677 285.583 86.7677Z" fill="#EE2C7B" fill-opacity="0.6"/>
<path d="M317.86 92.5528C321.183 92.5528 323.876 89.8594 323.876 86.5369C323.876 83.2144 321.183 80.521 317.86 80.521C314.538 80.521 311.844 83.2144 311.844 86.5369C311.844 89.8594 314.538 92.5528 317.86 92.5528Z" fill="#EE2C7B" fill-opacity="0.5"/>
<path d="M347.94 101.692C350.751 101.692 353.03 99.4132 353.03 96.6019C353.03 93.7905 350.751 91.5115 347.94 91.5115C345.128 91.5115 342.849 93.7905 342.849 96.6019C342.849 99.4132 345.128 101.692 347.94 101.692Z" fill="#EE2C7B" fill-opacity="0.45"/>
<path d="M375.937 117.542C378.748 117.542 381.027 115.263 381.027 112.451C381.027 109.64 378.748 107.361 375.937 107.361C373.125 107.361 370.846 109.64 370.846 112.451C370.846 115.263 373.125 117.542 375.937 117.542Z" fill="#EE2C7B" fill-opacity="0.4"/>
<path d="M400.926 137.787C403.737 137.787 406.016 135.508 406.016 132.697C406.016 129.885 403.737 127.606 400.926 127.606C398.115 127.606 395.836 129.885 395.836 132.697C395.836 135.508 398.115 137.787 400.926 137.787Z" fill="#EE2C7B" fill-opacity="0.35"/>
<path d="M422.791 159.653C424.836 159.653 426.493 157.996 426.493 155.951C426.493 153.907 424.836 152.249 422.791 152.249C420.747 152.249 419.089 153.907 419.089 155.951C419.089 157.996 420.747 159.653 422.791 159.653Z" fill="#EE2C7B" fill-opacity="0.3"/>
<path d="M440.261 187.997C442.305 187.997 443.963 186.339 443.963 184.295C443.963 182.25 442.305 180.593 440.261 180.593C438.216 180.593 436.559 182.25 436.559 184.295C436.559 186.339 438.216 187.997 440.261 187.997Z" fill="#EE2C7B" fill-opacity="0.25"/>
<path d="M452.292 218.077C454.081 218.077 455.532 216.627 455.532 214.837C455.532 213.048 454.081 211.598 452.292 211.598C450.503 211.598 449.053 213.048 449.053 214.837C449.053 216.627 450.503 218.077 452.292 218.077Z" fill="#EE2C7B" fill-opacity="0.2"/>
<path d="M459.118 251.164C460.907 251.164 462.357 249.714 462.357 247.925C462.357 246.136 460.907 244.686 459.118 244.686C457.329 244.686 455.879 246.136 455.879 247.925C455.879 249.714 457.329 251.164 459.118 251.164Z" fill="#EE2C7B" fill-opacity="0.15"/>
<path d="M459.118 287.028C460.396 287.028 461.432 285.992 461.432 284.714C461.432 283.436 460.396 282.4 459.118 282.4C457.84 282.4 456.804 283.436 456.804 284.714C456.804 285.992 457.84 287.028 459.118 287.028Z" fill="#FFAC60" fill-opacity="0.1"/>
<path d="M64.3823 240.405C69.2383 240.405 73.1748 236.468 73.1748 231.612C73.1748 226.756 69.2383 222.82 64.3823 222.82C59.5264 222.82 55.5898 226.756 55.5898 231.612C55.5898 236.468 59.5264 240.405 64.3823 240.405Z" fill="#F14B8F"/>
<path d="M73.9846 200.839C78.4572 200.839 82.0829 197.213 82.0829 192.74C82.0829 188.268 78.4572 184.642 73.9846 184.642C69.512 184.642 65.8862 188.268 65.8862 192.74C65.8862 197.213 69.512 200.839 73.9846 200.839Z" fill="#F14B8F"/>
<path d="M89.8342 168.445C94.3068 168.445 97.9326 164.82 97.9326 160.347C97.9326 155.875 94.3068 152.249 89.8342 152.249C85.3616 152.249 81.7359 155.875 81.7359 160.347C81.7359 164.82 85.3616 168.445 89.8342 168.445Z" fill="#F14B8F"/>
<path d="M89.8342 168.445C94.3068 168.445 97.9326 164.82 97.9326 160.347C97.9326 155.875 94.3068 152.249 89.8342 152.249C85.3616 152.249 81.7359 155.875 81.7359 160.347C81.7359 164.82 85.3616 168.445 89.8342 168.445Z" fill="black" fill-opacity="0.2"/>
<path d="M111.121 139.06C115.594 139.06 119.22 135.434 119.22 130.962C119.22 126.489 115.594 122.864 111.121 122.864C106.649 122.864 103.023 126.489 103.023 130.962C103.023 135.434 106.649 139.06 111.121 139.06Z" fill="#F14B8F"/>
<path d="M136.573 113.029C140.662 113.029 143.977 109.714 143.977 105.625C143.977 101.536 140.662 98.2209 136.573 98.2209C132.484 98.2209 129.169 101.536 129.169 105.625C129.169 109.714 132.484 113.029 136.573 113.029Z" fill="#F14B8F"/>
<path d="M165.727 93.1309C169.816 93.1309 173.131 89.8159 173.131 85.7267C173.131 81.6375 169.816 78.3225 165.727 78.3225C161.638 78.3225 158.323 81.6375 158.323 85.7267C158.323 89.8159 161.638 93.1309 165.727 93.1309Z" fill="#F14B8F"/>
<path d="M198.699 77.8594C202.788 77.8594 206.103 74.5444 206.103 70.4552C206.103 66.366 202.788 63.051 198.699 63.051C194.61 63.051 191.295 66.366 191.295 70.4552C191.295 74.5444 194.61 77.8594 198.699 77.8594Z" fill="#F14B8F"/>
<path d="M234.563 68.6043C238.652 68.6043 241.967 65.2893 241.967 61.2001C241.967 57.1109 238.652 53.7959 234.563 53.7959C230.474 53.7959 227.159 57.1109 227.159 61.2001C227.159 65.2893 230.474 68.6043 234.563 68.6043Z" fill="#F14B8F" fill-opacity="0.7"/>
<path d="M268.692 64.7865C272.398 64.7865 275.402 61.7824 275.402 58.0765C275.402 54.3706 272.398 51.3665 268.692 51.3665C264.986 51.3665 261.982 54.3706 261.982 58.0765C261.982 61.7824 264.986 64.7865 268.692 64.7865Z" fill="#F14B8F" fill-opacity="0.6"/>
<path d="M306.407 67.9099C310.113 67.9099 313.117 64.9057 313.117 61.1998C313.117 57.4939 310.113 54.4897 306.407 54.4897C302.701 54.4897 299.697 57.4939 299.697 61.1998C299.697 64.9057 302.701 67.9099 306.407 67.9099Z" fill="#F14B8F" fill-opacity="0.5"/>
<path d="M341.114 75.8931C344.436 75.8931 347.13 73.1997 347.13 69.8772C347.13 66.5547 344.436 63.8613 341.114 63.8613C337.791 63.8613 335.098 66.5547 335.098 69.8772C335.098 73.1997 337.791 75.8931 341.114 75.8931Z" fill="#F14B8F" fill-opacity="0.45"/>
<path d="M373.623 90.2384C376.945 90.2384 379.639 87.5449 379.639 84.2225C379.639 80.9 376.945 78.2065 373.623 78.2065C370.301 78.2065 367.607 80.9 367.607 84.2225C367.607 87.5449 370.301 90.2384 373.623 90.2384Z" fill="#F14B8F" fill-opacity="0.4"/>
<path d="M403.703 111.641C407.025 111.641 409.718 108.948 409.718 105.626C409.718 102.303 407.025 99.6096 403.703 99.6096C400.38 99.6096 397.687 102.303 397.687 105.626C397.687 108.948 400.38 111.641 403.703 111.641Z" fill="#F14B8F" fill-opacity="0.35"/>
<path d="M429.617 135.936C432.684 135.936 435.17 133.45 435.17 130.383C435.17 127.316 432.684 124.83 429.617 124.83C426.55 124.83 424.064 127.316 424.064 130.383C424.064 133.45 426.55 135.936 429.617 135.936Z" fill="#F14B8F" fill-opacity="0.3"/>
<path d="M450.442 164.165C453.253 164.165 455.532 161.886 455.532 159.075C455.532 156.263 453.253 153.984 450.442 153.984C447.63 153.984 445.351 156.263 445.351 159.075C445.351 161.886 447.63 164.165 450.442 164.165Z" fill="#F14B8F" fill-opacity="0.25"/>
<path d="M468.489 196.096C470.534 196.096 472.191 194.438 472.191 192.393C472.191 190.349 470.534 188.691 468.489 188.691C466.445 188.691 464.787 190.349 464.787 192.393C464.787 194.438 466.445 196.096 468.489 196.096Z" fill="#F14B8F" fill-opacity="0.2"/>
<path d="M478.439 231.15C480.483 231.15 482.141 229.492 482.141 227.448C482.141 225.403 480.483 223.746 478.439 223.746C476.394 223.746 474.736 225.403 474.736 227.448C474.736 229.492 476.394 231.15 478.439 231.15Z" fill="#F14B8F" fill-opacity="0.15"/>
<path d="M482.141 271.873C483.674 271.873 484.917 270.63 484.917 269.096C484.917 267.563 483.674 266.32 482.141 266.32C480.607 266.32 479.364 267.563 479.364 269.096C479.364 270.63 480.607 271.873 482.141 271.873Z" fill="#F14B8F" fill-opacity="0.1"/>
<path d="M39.9715 254.866C45.5303 254.866 50.0366 250.36 50.0366 244.801C50.0366 239.242 45.5303 234.736 39.9715 234.736C34.4127 234.736 29.9064 239.242 29.9064 244.801C29.9064 250.36 34.4127 254.866 39.9715 254.866Z" fill="#FFAC60"/>
<path d="M46.6815 212.987C51.9208 212.987 56.1681 208.739 56.1681 203.5C56.1681 198.261 51.9208 194.013 46.6815 194.013C41.4422 194.013 37.1949 198.261 37.1949 203.5C37.1949 208.739 41.4422 212.987 46.6815 212.987Z" fill="#FFAC60"/>
<path d="M61.2584 175.85C66.4977 175.85 70.745 171.603 70.745 166.363C70.745 161.124 66.4977 156.877 61.2584 156.877C56.0191 156.877 51.7718 161.124 51.7718 166.363C51.7718 171.603 56.0191 175.85 61.2584 175.85Z" fill="#FFAC60"/>
<path d="M81.7358 141.49C86.9751 141.49 91.2224 137.242 91.2224 132.003C91.2224 126.764 86.9751 122.516 81.7358 122.516C76.4964 122.516 72.2491 126.764 72.2491 132.003C72.2491 137.242 76.4964 141.49 81.7358 141.49Z" fill="#FFAC60"/>
<path d="M109.502 110.369C114.741 110.369 118.988 106.121 118.988 100.882C118.988 95.6428 114.741 91.3955 109.502 91.3955C104.262 91.3955 100.015 95.6428 100.015 100.882C100.015 106.121 104.262 110.369 109.502 110.369Z" fill="#FFAC60"/>
<path d="M137.151 86.074C142.007 86.074 145.944 82.1374 145.944 77.2815C145.944 72.4255 142.007 68.489 137.151 68.489C132.295 68.489 128.359 72.4255 128.359 77.2815C128.359 82.1374 132.295 86.074 137.151 86.074Z" fill="#FFAC60"/>
<path d="M172.9 64.5558C177.373 64.5558 180.998 60.9301 180.998 56.4575C180.998 51.9849 177.373 48.3591 172.9 48.3591C168.427 48.3591 164.802 51.9849 164.802 56.4575C164.802 60.9301 168.427 64.5558 172.9 64.5558Z" fill="#FFAC60"/>
<path d="M210.615 51.0197C215.088 51.0197 218.713 47.3939 218.713 42.9213C218.713 38.4487 215.088 34.823 210.615 34.823C206.142 34.823 202.517 38.4487 202.517 42.9213C202.517 47.3939 206.142 51.0197 210.615 51.0197Z" fill="#FFAC60" fill-opacity="0.7"/>
<path d="M250.413 42.9217C254.502 42.9217 257.817 39.6067 257.817 35.5175C257.817 31.4283 254.502 28.1133 250.413 28.1133C246.323 28.1133 243.008 31.4283 243.008 35.5175C243.008 39.6067 246.323 42.9217 250.413 42.9217Z" fill="#FFAC60" fill-opacity="0.6"/>
<path d="M291.367 41.0706C294.945 41.0706 297.845 38.17 297.845 34.5919C297.845 31.0139 294.945 28.1133 291.367 28.1133C287.789 28.1133 284.888 31.0139 284.888 34.5919C284.888 38.17 287.789 41.0706 291.367 41.0706Z" fill="#FFAC60" fill-opacity="0.5"/>
<path d="M331.396 47.0867C334.718 47.0867 337.412 44.3933 337.412 41.0708C337.412 37.7483 334.718 35.0549 331.396 35.0549C328.073 35.0549 325.38 37.7483 325.38 41.0708C325.38 44.3933 328.073 47.0867 331.396 47.0867Z" fill="#FFAC60" fill-opacity="0.5"/>
<path d="M369.574 60.7376C372.641 60.7376 375.127 58.2514 375.127 55.1845C375.127 52.1176 372.641 49.6313 369.574 49.6313C366.507 49.6313 364.021 52.1176 364.021 55.1845C364.021 58.2514 366.507 60.7376 369.574 60.7376Z" fill="#FFAC60" fill-opacity="0.4"/>
<path d="M402.893 80.4049C405.96 80.4049 408.446 77.9186 408.446 74.8517C408.446 71.7848 405.96 69.2986 402.893 69.2986C399.826 69.2986 397.339 71.7848 397.339 74.8517C397.339 77.9186 399.826 80.4049 402.893 80.4049Z" fill="#FFAC60" fill-opacity="0.35"/>
<path d="M435.17 104.816C437.726 104.816 439.798 102.744 439.798 100.188C439.798 97.6324 437.726 95.5605 435.17 95.5605C432.614 95.5605 430.543 97.6324 430.543 100.188C430.543 102.744 432.614 104.816 435.17 104.816Z" fill="#FFAC60" fill-opacity="0.3"/>
<path d="M460.853 134.432C463.409 134.432 465.481 132.361 465.481 129.805C465.481 127.249 463.409 125.177 460.853 125.177C458.298 125.177 456.226 127.249 456.226 129.805C456.226 132.361 458.298 134.432 460.853 134.432Z" fill="#FFAC60" fill-opacity="0.25"/>
<path d="M483.297 169.95C485.598 169.95 487.462 168.085 487.462 165.785C487.462 163.485 485.598 161.62 483.297 161.62C480.997 161.62 479.133 163.485 479.133 165.785C479.133 168.085 480.997 169.95 483.297 169.95Z" fill="#FFAC60" fill-opacity="0.2"/>
<path d="M497.527 205.929C499.316 205.929 500.767 204.479 500.767 202.69C500.767 200.901 499.316 199.451 497.527 199.451C495.738 199.451 494.288 200.901 494.288 202.69C494.288 204.479 495.738 205.929 497.527 205.929Z" fill="#FFAC60" fill-opacity="0.15"/>
<path d="M504.006 232.886C505.795 232.886 507.246 231.435 507.246 229.646C507.246 227.857 505.795 226.407 504.006 226.407C502.217 226.407 500.767 227.857 500.767 229.646C500.767 231.435 502.217 232.886 504.006 232.886Z" fill="#FFAC60" fill-opacity="0.1"/>
<path d="M506.32 257.18C508.109 257.18 509.559 255.73 509.559 253.941C509.559 252.152 508.109 250.701 506.32 250.701C504.531 250.701 503.081 252.152 503.081 253.941C503.081 255.73 504.531 257.18 506.32 257.18Z" fill="#FFAC60" fill-opacity="0.1"/>
<path d="M12.3214 272.335C19.0303 272.335 24.4689 266.897 24.4689 260.188C24.4689 253.479 19.0303 248.04 12.3214 248.04C5.61251 248.04 0.173889 253.479 0.173889 260.188C0.173889 266.897 5.61251 272.335 12.3214 272.335Z" fill="#FFD260"/>
<path d="M532.235 241.099C534.024 241.099 535.474 239.648 535.474 237.859C535.474 236.07 534.024 234.62 532.235 234.62C530.446 234.62 528.995 236.07 528.995 237.859C528.995 239.648 530.446 241.099 532.235 241.099Z" fill="#FFAC60" fill-opacity="0.1"/>
<path d="M17.6433 231.612C24.2883 231.612 29.6751 226.225 29.6751 219.58C29.6751 212.935 24.2883 207.549 17.6433 207.549C10.9983 207.549 5.61145 212.935 5.61145 219.58C5.61145 226.225 10.9983 231.612 17.6433 231.612Z" fill="#FFD260"/>
<path d="M28.8651 187.881C34.999 187.881 39.9714 182.909 39.9714 176.775C39.9714 170.641 34.999 165.668 28.8651 165.668C22.7313 165.668 17.7589 170.641 17.7589 176.775C17.7589 182.909 22.7313 187.881 28.8651 187.881Z" fill="#FFD260"/>
<path d="M47.7227 148.778C53.8566 148.778 58.829 143.806 58.829 137.672C58.829 131.538 53.8566 126.566 47.7227 126.566C41.5889 126.566 36.6165 131.538 36.6165 137.672C36.6165 143.806 41.5889 148.778 47.7227 148.778Z" fill="#FFD260"/>
<path d="M73.406 110.6C79.2842 110.6 84.0495 105.835 84.0495 99.9563C84.0495 94.078 79.2842 89.3127 73.406 89.3127C67.5277 89.3127 62.7625 94.078 62.7625 99.9563C62.7625 105.835 67.5277 110.6 73.406 110.6Z" fill="#FFD260"/>
<path d="M104.295 78.5537C109.662 78.5537 114.013 74.2028 114.013 68.8357C114.013 63.4686 109.662 59.1177 104.295 59.1177C98.9281 59.1177 94.5772 63.4686 94.5772 68.8357C94.5772 74.2028 98.9281 78.5537 104.295 78.5537Z" fill="#FFD260"/>
<path d="M143.052 51.3667C148.163 51.3667 152.307 47.223 152.307 42.1114C152.307 36.9999 148.163 32.8562 143.052 32.8562C137.94 32.8562 133.797 36.9999 133.797 42.1114C133.797 47.223 137.94 51.3667 143.052 51.3667Z" fill="#FFD260"/>
<path d="M185.742 31.2361C190.597 31.2361 194.534 27.2996 194.534 22.4436C194.534 17.5876 190.597 13.6511 185.742 13.6511C180.886 13.6511 176.949 17.5876 176.949 22.4436C176.949 27.2996 180.886 31.2361 185.742 31.2361Z" fill="#FFD260" fill-opacity="0.7"/>
<path d="M228.084 18.8572C232.429 18.8572 235.951 15.335 235.951 10.9902C235.951 6.64545 232.429 3.12329 228.084 3.12329C223.74 3.12329 220.217 6.64545 220.217 10.9902C220.217 15.335 223.74 18.8572 228.084 18.8572Z" fill="#FFD260" fill-opacity="0.6"/>
<path d="M272.046 14.8084C276.136 14.8084 279.451 11.4934 279.451 7.40419C279.451 3.31497 276.136 0 272.046 0C267.957 0 264.642 3.31497 264.642 7.40419C264.642 11.4934 267.957 14.8084 272.046 14.8084Z" fill="#FFD260" fill-opacity="0.5"/>
<path d="M317.976 18.5105C321.809 18.5105 324.917 15.4028 324.917 11.5691C324.917 7.73547 321.809 4.62769 317.976 4.62769C314.142 4.62769 311.034 7.73547 311.034 11.5691C311.034 15.4028 314.142 18.5105 317.976 18.5105Z" fill="#FFD260" fill-opacity="0.45"/>
<path d="M356.153 29.1534C359.987 29.1534 363.095 26.0456 363.095 22.2119C363.095 18.3783 359.987 15.2705 356.153 15.2705C352.32 15.2705 349.212 18.3783 349.212 22.2119C349.212 26.0456 352.32 29.1534 356.153 29.1534Z" fill="#FFD260" fill-opacity="0.4"/>
<path d="M396.761 45.9293C400.083 45.9293 402.777 43.2359 402.777 39.9134C402.777 36.5909 400.083 33.8975 396.761 33.8975C393.438 33.8975 390.745 36.5909 390.745 39.9134C390.745 43.2359 393.438 45.9293 396.761 45.9293Z" fill="#FFD260" fill-opacity="0.35"/>
<path d="M434.708 69.2984C437.519 69.2984 439.798 67.0194 439.798 64.2081C439.798 61.3967 437.519 59.1177 434.708 59.1177C431.896 59.1177 429.617 61.3967 429.617 64.2081C429.617 67.0194 431.896 69.2984 434.708 69.2984Z" fill="#FFD260" fill-opacity="0.3"/>
<path d="M468.373 101.113C470.929 101.113 473.001 99.0413 473.001 96.4855C473.001 93.9298 470.929 91.8579 468.373 91.8579C465.817 91.8579 463.746 93.9298 463.746 96.4855C463.746 99.0413 465.817 101.113 468.373 101.113Z" fill="#FFD260" fill-opacity="0.25"/>
<path d="M495.445 139.06C498.001 139.06 500.072 136.988 500.072 134.433C500.072 131.877 498.001 129.805 495.445 129.805C492.889 129.805 490.817 131.877 490.817 134.433C490.817 136.988 492.889 139.06 495.445 139.06Z" fill="#FFD260" fill-opacity="0.2"/>
<path d="M514.765 178.279C517.065 178.279 518.93 176.415 518.93 174.115C518.93 171.814 517.065 169.95 514.765 169.95C512.465 169.95 510.6 171.814 510.6 174.115C510.6 176.415 512.465 178.279 514.765 178.279Z" fill="#FFD260" fill-opacity="0.15"/>
<path d="M525.293 208.59C527.338 208.59 528.995 206.933 528.995 204.888C528.995 202.844 527.338 201.186 525.293 201.186C523.249 201.186 521.591 202.844 521.591 204.888C521.591 206.933 523.249 208.59 525.293 208.59Z" fill="#FFD260" fill-opacity="0.1"/>
</svg>
