<svg width="111" height="65" viewBox="0 0 111 65" fill="none" xmlns="http://www.w3.org/2000/svg">
<path fill-rule="evenodd" clip-rule="evenodd" d="M71.5163 0.946289L110.055 64.0702H77.9948H0.917175L39.456 0.946289L55.4031 27.1925L71.5163 0.946289ZM18.6915 54.7677H38.7915L45.1039 44.4686H25.0039L18.6915 54.7677ZM48.7584 35.1661L39.456 20.5479L30.6519 35.1661H48.7584ZM62.5461 35.1661L71.5163 20.3818L80.4865 35.1661H62.5461ZM66.0345 44.4686L72.3469 54.7677H92.613L86.3006 44.4686H66.0345ZM60.5527 54.7677L55.5692 46.6281L50.5857 54.7677H60.5527Z" fill="#FFDD85"/>
<path fill-rule="evenodd" clip-rule="evenodd" d="M5.23621 61.5783L15.7015 44.3022H22.0139L14.2064 56.927H39.9544L47.7618 44.3022H53.9081L46.1007 56.927H64.8717L57.0643 44.3022H63.0444L70.8519 56.927H96.932L89.1246 44.3022H95.1048L105.57 61.5783" fill="#D2A530"/>
</svg>
