<svg width="88" height="88" viewBox="0 0 88 88" fill="none" xmlns="http://www.w3.org/2000/svg">
<path fill-rule="evenodd" clip-rule="evenodd" d="M45.8966 29.7188L50.2966 36.9256H46.6362H37.8362L42.2362 29.7188L44.0569 32.7153L45.8966 29.7188ZM39.8655 35.8636H42.1603L42.881 34.6877H40.5862L39.8655 35.8636ZM43.2983 33.6256L42.2362 31.9567L41.231 33.6256H43.2983ZM44.8724 33.6256L45.8966 31.9377L46.9207 33.6256H44.8724ZM45.2707 34.6877L45.9914 35.8636H48.3052L47.5845 34.6877H45.2707ZM44.6448 35.8636L44.0759 34.9343L43.5069 35.8636H44.6448Z" fill="#FFDD85"/>
<path fill-rule="evenodd" clip-rule="evenodd" d="M38.3294 36.6413L39.5242 34.6689H40.2449L39.3535 36.1103H42.2932L43.1845 34.6689H43.8863L42.9949 36.1103H45.138L44.2466 34.6689H44.9294L45.8208 36.1103H48.7983L47.907 34.6689H48.5897L49.7845 36.6413" fill="#D2A530"/>
<path fill-rule="evenodd" clip-rule="evenodd" d="M47.4329 54.0709V48.002H48.6846L51.6811 52.0416V48.002H52.8191V54.0709H51.6811L48.6087 49.9175V54.0709H47.4329Z" fill="#FFDD85"/>
<path fill-rule="evenodd" clip-rule="evenodd" d="M46.3137 48.002H41.5912V54.0709H46.3137V52.914H42.7481V51.5675H44.6826V50.4106H42.7481V49.1589H46.3137V48.002Z" fill="#FFDD85"/>
<path fill-rule="evenodd" clip-rule="evenodd" d="M46.0293 53.7862V53.1793H42.4638V51.6431H41.8569V53.7672H46.0482" fill="#D2A530"/>
<path fill-rule="evenodd" clip-rule="evenodd" d="M47.7174 51.6621H48.3243V53.7863H47.7174V51.6621ZM52.5347 53.7863H51.814L50.2398 51.6621H51.0364L51.9467 52.8949V51.6621H52.5347V53.7863Z" fill="#D2A530"/>
<path fill-rule="evenodd" clip-rule="evenodd" d="M30.3259 47.9829L27.6518 54.0519H34.1949L31.5207 47.9829H30.3259ZM30.9328 49.3864L32.2793 52.8002H29.5862L30.9328 49.3864Z" fill="#FFDD85"/>
<path d="M29.7379 51.6431H29.0172L28.0879 53.7672H33.7776L32.8483 51.6431H32.1276L32.6965 53.0845H29.1879L29.7379 51.6431Z" fill="#D2A530"/>
<path fill-rule="evenodd" clip-rule="evenodd" d="M56.612 48.021L53.9379 54.09H60.481L57.8069 48.021H56.612ZM57.2 49.4055L58.5465 52.8193H55.8534L57.2 49.4055Z" fill="#FFDD85"/>
<path d="M56.0242 51.6812H55.3035L54.3742 53.8053H60.0638L59.1345 51.6812H58.4138L58.9828 53.1225H55.4742L56.0242 51.6812Z" fill="#D2A530"/>
<path fill-rule="evenodd" clip-rule="evenodd" d="M38.4622 49.1589H35.295V48.002H38.5191H38.5381C38.8415 48.0209 39.3156 48.1157 39.7329 48.4382C40.1881 48.7795 40.4915 49.3485 40.4725 50.1261C40.4346 50.9037 40.1312 51.4347 39.676 51.7382C39.4674 51.8709 39.2398 51.9468 39.0501 51.9847L40.3777 54.0519H38.9743L37.6656 52.0226H36.4708V54.0519H35.3139V50.8847H38.4812H38.5001C38.9553 50.8657 39.3346 50.4864 39.3346 50.0123C39.3346 49.5571 38.9553 49.1589 38.4622 49.1589Z" fill="#FFDD85"/>
<path fill-rule="evenodd" clip-rule="evenodd" d="M38.671 51.6621H36.1865V51.7759H37.9123L39.202 53.7863H39.7899L38.4813 51.7569H38.652C39.1451 51.7569 39.183 51.738 39.2589 51.7C39.2968 51.6811 39.2968 51.6621 39.3158 51.6621H38.671ZM36.1865 51.6621H35.5985V53.7863H36.1865V51.6621Z" fill="#D2A530"/>
<path fill-rule="evenodd" clip-rule="evenodd" d="M47.4894 40.8708H45.7636V39.7139H50.3912V40.8708H48.6653V45.7828H47.5084V40.8708H47.4894Z" fill="#FFDD85"/>
<path fill-rule="evenodd" clip-rule="evenodd" d="M51.4912 40.8708H53.2171V44.6259H51.4912V45.7828H56.0998V44.6259H54.374V40.8708H56.0998V39.7139H51.4912V40.8708Z" fill="#FFDD85"/>
<path fill-rule="evenodd" clip-rule="evenodd" d="M28.3154 39.7139L25.6413 45.7828H32.1844L29.5103 39.7139H28.3154ZM28.9223 41.1173L30.2689 44.5311H27.5758L28.9223 41.1173Z" fill="#FFDD85"/>
<path fill-rule="evenodd" clip-rule="evenodd" d="M43.8671 44.0001C43.5257 44.3415 43.0705 44.569 42.5395 44.569C41.5343 44.569 40.7188 43.7535 40.7188 42.7484C40.7188 41.7432 41.5343 40.9277 42.5395 40.9277C43.0705 40.9277 43.5447 41.1552 43.8671 41.4966L44.6637 40.5863C44.1137 40.0363 43.355 39.7139 42.5395 39.7139C40.8705 39.7139 39.505 41.0794 39.505 42.7484C39.505 44.4173 40.8705 45.7828 42.5395 45.7828C43.4309 45.7828 44.2464 45.3846 44.7964 44.7777L43.8671 44.0001Z" fill="#FFDD85"/>
<path fill-rule="evenodd" clip-rule="evenodd" d="M36.4135 40.8708H33.2463V39.7139H36.4704H36.4894C36.7928 39.7328 37.267 39.8277 37.6842 40.1501C38.1394 40.4915 38.4428 41.0604 38.4239 41.838C38.3859 42.6156 38.0825 43.1466 37.6273 43.4501C37.4187 43.5828 37.1911 43.6587 37.0015 43.6966L38.329 45.7639H36.9256L35.617 43.7346H34.4221V45.7639H33.2652V42.5966H36.4325H36.4515C36.9066 42.5777 37.2859 42.1983 37.2859 41.7242C37.2859 41.269 36.9066 40.8708 36.4135 40.8708Z" fill="#FFDD85"/>
<path d="M27.7276 43.374H27.0069L26.0776 45.4981H31.7672L30.8379 43.374H30.1172L30.6862 44.8154H27.1776L27.7276 43.374Z" fill="#D2A530"/>
<path d="M48.305 43.374H47.8308V45.4413H48.305V43.374Z" fill="#D2A530"/>
<path fill-rule="evenodd" clip-rule="evenodd" d="M54.0518 43.374H53.5776V44.9671H51.8518V45.4981H55.7587V44.9671H54.0518V43.374Z" fill="#D2A530"/>
<path fill-rule="evenodd" clip-rule="evenodd" d="M36.6223 43.374H34.1379V43.4878H35.8637L37.1534 45.4981H37.7413L36.4327 43.4689H36.6034C37.0965 43.4689 37.1344 43.4499 37.2103 43.412C37.2482 43.393 37.2482 43.374 37.2672 43.374H36.6223ZM34.1379 43.374H33.5499V45.5171H34.1379V43.374Z" fill="#D2A530"/>
<path d="M40.4913 43.374C40.4913 43.374 40.8327 44.8913 42.5396 44.9482C43.3362 44.9861 43.8672 44.4551 43.8672 44.4551L44.2844 44.7964C44.2844 44.7964 43.7344 45.5551 42.4827 45.5171C40.2637 45.4792 39.9224 43.393 39.9224 43.393L40.4913 43.374Z" fill="#D2A530"/>
<path fill-rule="evenodd" clip-rule="evenodd" d="M61.562 44.0001C61.2206 44.3415 60.7654 44.569 60.2344 44.569C59.2292 44.569 58.4137 43.7535 58.4137 42.7484C58.4137 41.7432 59.2292 40.9277 60.2344 40.9277C60.7654 40.9277 61.2396 41.1552 61.562 41.4966L62.3585 40.5863C61.8085 40.0363 61.0499 39.7139 60.2344 39.7139C58.5654 39.7139 57.1999 41.0794 57.1999 42.7484C57.1999 44.4173 58.5654 45.7828 60.2344 45.7828C61.1258 45.7828 61.9413 45.3846 62.4913 44.7777L61.562 44.0001Z" fill="#FFDD85"/>
<path d="M58.1863 43.374C58.1863 43.374 58.5277 44.8913 60.2346 44.9482C61.0311 44.9861 61.5622 44.4551 61.5622 44.4551L61.9794 44.7964C61.9794 44.7964 61.4294 45.5551 60.1777 45.5171C57.9587 45.4792 57.6173 43.393 57.6173 43.393L58.1863 43.374Z" fill="#D2A530"/>
<path d="M20.805 29.9468C21.2973 29.9468 21.6964 29.5477 21.6964 29.0554C21.6964 28.5631 21.2973 28.1641 20.805 28.1641C20.3127 28.1641 19.9136 28.5631 19.9136 29.0554C19.9136 29.5477 20.3127 29.9468 20.805 29.9468Z" fill="#E01974"/>
<path d="M18.8136 34.3088C19.3583 34.3088 19.7998 33.8673 19.7998 33.3226C19.7998 32.778 19.3583 32.3364 18.8136 32.3364C18.269 32.3364 17.8274 32.778 17.8274 33.3226C17.8274 33.8673 18.269 34.3088 18.8136 34.3088Z" fill="#E01974"/>
<path d="M23.46 26.6275C23.9523 26.6275 24.3514 26.2284 24.3514 25.7361C24.3514 25.2438 23.9523 24.8447 23.46 24.8447C22.9677 24.8447 22.5687 25.2438 22.5687 25.7361C22.5687 26.2284 22.9677 26.6275 23.46 26.6275Z" fill="#E01974"/>
<path d="M26.6656 23.4605C27.1579 23.4605 27.557 23.0614 27.557 22.5691C27.557 22.0768 27.1579 21.6777 26.6656 21.6777C26.1733 21.6777 25.7742 22.0768 25.7742 22.5691C25.7742 23.0614 26.1733 23.4605 26.6656 23.4605Z" fill="#E01974"/>
<path d="M30.4394 20.6533C30.8688 20.6533 31.217 20.3052 31.217 19.8757C31.217 19.4463 30.8688 19.0981 30.4394 19.0981C30.0099 19.0981 29.6618 19.4463 29.6618 19.8757C29.6618 20.3052 30.0099 20.6533 30.4394 20.6533Z" fill="#E01974"/>
<path d="M34.9723 18.5674C35.4018 18.5674 35.7499 18.2192 35.7499 17.7898C35.7499 17.3603 35.4018 17.0122 34.9723 17.0122C34.5429 17.0122 34.1947 17.3603 34.1947 17.7898C34.1947 18.2192 34.5429 18.5674 34.9723 18.5674Z" fill="#E01974"/>
<path d="M39.3912 17.4673C39.8206 17.4673 40.1688 17.1191 40.1688 16.6897C40.1688 16.2602 39.8206 15.9121 39.3912 15.9121C38.9617 15.9121 38.6136 16.2602 38.6136 16.6897C38.6136 17.1191 38.9617 17.4673 39.3912 17.4673Z" fill="#E01974"/>
<path d="M43.9239 17.1069C44.3533 17.1069 44.7015 16.7588 44.7015 16.3293C44.7015 15.8999 44.3533 15.5518 43.9239 15.5518C43.4944 15.5518 43.1463 15.8999 43.1463 16.3293C43.1463 16.7588 43.4944 17.1069 43.9239 17.1069Z" fill="#E01974" fill-opacity="0.6"/>
<path d="M49.4475 16.7174C49.5163 16.2935 49.2284 15.8941 48.8045 15.8253C48.3806 15.7565 47.9811 16.0444 47.9124 16.4683C47.8436 16.8922 48.1314 17.2916 48.5553 17.3604C48.9793 17.4292 49.3787 17.1413 49.4475 16.7174Z" fill="#E01974" fill-opacity="0.6"/>
<path d="M53.4449 18.6621C53.8743 18.6621 54.2225 18.314 54.2225 17.8845C54.2225 17.4551 53.8743 17.1069 53.4449 17.1069C53.0154 17.1069 52.6673 17.4551 52.6673 17.8845C52.6673 18.314 53.0154 18.6621 53.4449 18.6621Z" fill="#E01974" fill-opacity="0.5"/>
<path d="M57.8069 20.6533C58.2364 20.6533 58.5845 20.3052 58.5845 19.8757C58.5845 19.4463 58.2364 19.0981 57.8069 19.0981C57.3775 19.0981 57.0293 19.4463 57.0293 19.8757C57.0293 20.3052 57.3775 20.6533 57.8069 20.6533Z" fill="#E01974" fill-opacity="0.45"/>
<path d="M61.562 23.3086C61.9915 23.3086 62.3396 22.9605 62.3396 22.531C62.3396 22.1016 61.9915 21.7534 61.562 21.7534C61.1326 21.7534 60.7844 22.1016 60.7844 22.531C60.7844 22.9605 61.1326 23.3086 61.562 23.3086Z" fill="#E01974" fill-opacity="0.4"/>
<path d="M65.1654 26.6089C65.5949 26.6089 65.943 26.2607 65.943 25.8313C65.943 25.4018 65.5949 25.0537 65.1654 25.0537C64.736 25.0537 64.3878 25.4018 64.3878 25.8313C64.3878 26.2607 64.736 26.6089 65.1654 26.6089Z" fill="#E01974" fill-opacity="0.35"/>
<path d="M70.1911 34.5362C70.4844 34.5362 70.7221 34.2984 70.7221 34.0052C70.7221 33.7119 70.4844 33.4741 70.1911 33.4741C69.8978 33.4741 69.6601 33.7119 69.6601 34.0052C69.6601 34.2984 69.8978 34.5362 70.1911 34.5362Z" fill="#E01974" fill-opacity="0.25"/>
<path d="M71.5566 39.088C71.8499 39.088 72.0877 38.8502 72.0877 38.5569C72.0877 38.2636 71.8499 38.0259 71.5566 38.0259C71.2633 38.0259 71.0256 38.2636 71.0256 38.5569C71.0256 38.8502 71.2633 39.088 71.5566 39.088Z" fill="#E01974" fill-opacity="0.2"/>
<path d="M72.1637 43.9622C72.3732 43.9622 72.543 43.7924 72.543 43.5829C72.543 43.3734 72.3732 43.2036 72.1637 43.2036C71.9542 43.2036 71.7844 43.3734 71.7844 43.5829C71.7844 43.7924 71.9542 43.9622 72.1637 43.9622Z" fill="#E01974" fill-opacity="0.15"/>
<path d="M71.7846 49.2915C71.9521 49.2915 72.088 49.1556 72.088 48.988C72.088 48.8204 71.9521 48.6846 71.7846 48.6846C71.617 48.6846 71.4811 48.8204 71.4811 48.988C71.4811 49.1556 71.617 49.2915 71.7846 49.2915Z" fill="#FFD260" fill-opacity="0.1"/>
<path d="M68.086 30.269C68.4212 30.269 68.6929 29.9972 68.6929 29.6621C68.6929 29.3269 68.4212 29.0552 68.086 29.0552C67.7509 29.0552 67.4792 29.3269 67.4792 29.6621C67.4792 29.9972 67.7509 30.269 68.086 30.269Z" fill="#EE2C7B" fill-opacity="0.25"/>
<path d="M14.8309 36.7933C15.5641 36.7933 16.1585 36.199 16.1585 35.4658C16.1585 34.7326 15.5641 34.1382 14.8309 34.1382C14.0977 34.1382 13.5033 34.7326 13.5033 35.4658C13.5033 36.199 14.0977 36.7933 14.8309 36.7933Z" fill="#EE2C7B"/>
<path d="M16.5948 31.8431C17.2652 31.8431 17.8086 31.2997 17.8086 30.6293C17.8086 29.959 17.2652 29.4155 16.5948 29.4155C15.9245 29.4155 15.381 29.959 15.381 30.6293C15.381 31.2997 15.9245 31.8431 16.5948 31.8431Z" fill="#EE2C7B"/>
<path d="M19.3638 27.2728C20.0342 27.2728 20.5776 26.7294 20.5776 26.059C20.5776 25.3886 20.0342 24.8452 19.3638 24.8452C18.6935 24.8452 18.15 25.3886 18.15 26.059C18.15 26.7294 18.6935 27.2728 19.3638 27.2728Z" fill="#EE2C7B"/>
<path d="M22.7207 23.3846C23.391 23.3846 23.9345 22.8412 23.9345 22.1708C23.9345 21.5005 23.391 20.957 22.7207 20.957C22.0503 20.957 21.5069 21.5005 21.5069 22.1708C21.5069 22.8412 22.0503 23.3846 22.7207 23.3846Z" fill="#EE2C7B"/>
<path d="M26.8928 20.0086C27.5632 20.0086 28.1066 19.4652 28.1066 18.7948C28.1066 18.1245 27.5632 17.5811 26.8928 17.5811C26.2225 17.5811 25.679 18.1245 25.679 18.7948C25.679 19.4652 26.2225 20.0086 26.8928 20.0086Z" fill="#EE2C7B"/>
<path d="M31.4258 17.221C32.0333 17.221 32.5258 16.7285 32.5258 16.121C32.5258 15.5135 32.0333 15.021 31.4258 15.021C30.8183 15.021 30.3258 15.5135 30.3258 16.121C30.3258 16.7285 30.8183 17.221 31.4258 17.221Z" fill="#EE2C7B"/>
<path d="M36.0723 15.552C36.6798 15.552 37.1722 15.0596 37.1722 14.452C37.1722 13.8445 36.6798 13.3521 36.0723 13.3521C35.4647 13.3521 34.9723 13.8445 34.9723 14.452C34.9723 15.0596 35.4647 15.552 36.0723 15.552Z" fill="#EE2C7B"/>
<path d="M41.4963 14.3381C42.041 14.3381 42.4825 13.8966 42.4825 13.3519C42.4825 12.8073 42.041 12.3657 41.4963 12.3657C40.9517 12.3657 40.5101 12.8073 40.5101 13.3519C40.5101 13.8966 40.9517 14.3381 41.4963 14.3381Z" fill="#EE2C7B" fill-opacity="0.7"/>
<path d="M46.8069 14.3381C47.3516 14.3381 47.7931 13.8966 47.7931 13.3519C47.7931 12.8073 47.3516 12.3657 46.8069 12.3657C46.2622 12.3657 45.8207 12.8073 45.8207 13.3519C45.8207 13.8966 46.2622 14.3381 46.8069 14.3381Z" fill="#EE2C7B" fill-opacity="0.6"/>
<path d="M52.0982 15.2864C52.6429 15.2864 53.0844 14.8448 53.0844 14.3002C53.0844 13.7555 52.6429 13.314 52.0982 13.314C51.5535 13.314 51.112 13.7555 51.112 14.3002C51.112 14.8448 51.5535 15.2864 52.0982 15.2864Z" fill="#EE2C7B" fill-opacity="0.5"/>
<path d="M57.0292 16.7847C57.4901 16.7847 57.8637 16.4111 57.8637 15.9502C57.8637 15.4893 57.4901 15.1157 57.0292 15.1157C56.5683 15.1157 56.1947 15.4893 56.1947 15.9502C56.1947 16.4111 56.5683 16.7847 57.0292 16.7847Z" fill="#EE2C7B" fill-opacity="0.45"/>
<path d="M61.6189 19.3828C62.0797 19.3828 62.4534 19.0092 62.4534 18.5484C62.4534 18.0875 62.0797 17.7139 61.6189 17.7139C61.158 17.7139 60.7844 18.0875 60.7844 18.5484C60.7844 19.0092 61.158 19.3828 61.6189 19.3828Z" fill="#EE2C7B" fill-opacity="0.4"/>
<path d="M65.7155 22.7022C66.1764 22.7022 66.55 22.3286 66.55 21.8677C66.55 21.4068 66.1764 21.0332 65.7155 21.0332C65.2546 21.0332 64.881 21.4068 64.881 21.8677C64.881 22.3286 65.2546 22.7022 65.7155 22.7022Z" fill="#EE2C7B" fill-opacity="0.35"/>
<path d="M69.2997 26.2866C69.6349 26.2866 69.9066 26.0148 69.9066 25.6797C69.9066 25.3445 69.6349 25.0728 69.2997 25.0728C68.9645 25.0728 68.6928 25.3445 68.6928 25.6797C68.6928 26.0148 68.9645 26.2866 69.2997 26.2866Z" fill="#EE2C7B" fill-opacity="0.3"/>
<path d="M72.1635 30.933C72.4986 30.933 72.7704 30.6613 72.7704 30.3261C72.7704 29.991 72.4986 29.7192 72.1635 29.7192C71.8283 29.7192 71.5566 29.991 71.5566 30.3261C71.5566 30.6613 71.8283 30.933 72.1635 30.933Z" fill="#EE2C7B" fill-opacity="0.25"/>
<path d="M74.1363 35.8638C74.4295 35.8638 74.6673 35.6261 74.6673 35.3328C74.6673 35.0395 74.4295 34.8018 74.1363 34.8018C73.843 34.8018 73.6052 35.0395 73.6052 35.3328C73.6052 35.6261 73.843 35.8638 74.1363 35.8638Z" fill="#EE2C7B" fill-opacity="0.2"/>
<path d="M75.255 41.2882C75.5482 41.2882 75.786 41.0504 75.786 40.7571C75.786 40.4638 75.5482 40.2261 75.255 40.2261C74.9617 40.2261 74.7239 40.4638 74.7239 40.7571C74.7239 41.0504 74.9617 41.2882 75.255 41.2882Z" fill="#EE2C7B" fill-opacity="0.15"/>
<path d="M75.255 47.1673C75.4644 47.1673 75.6343 46.9975 75.6343 46.788C75.6343 46.5785 75.4644 46.4087 75.255 46.4087C75.0455 46.4087 74.8756 46.5785 74.8756 46.788C74.8756 46.9975 75.0455 47.1673 75.255 47.1673Z" fill="#FFAC60" fill-opacity="0.1"/>
<path d="M10.5446 39.5244C11.3406 39.5244 11.9859 38.879 11.9859 38.083C11.9859 37.2869 11.3406 36.6416 10.5446 36.6416C9.74851 36.6416 9.10318 37.2869 9.10318 38.083C9.10318 38.879 9.74851 39.5244 10.5446 39.5244Z" fill="#F14B8F"/>
<path d="M12.1188 33.038C12.852 33.038 13.4464 32.4436 13.4464 31.7104C13.4464 30.9772 12.852 30.3828 12.1188 30.3828C11.3856 30.3828 10.7912 30.9772 10.7912 31.7104C10.7912 32.4436 11.3856 33.038 12.1188 33.038Z" fill="#F14B8F"/>
<path d="M14.7169 27.7279C15.4501 27.7279 16.0445 27.1335 16.0445 26.4003C16.0445 25.6671 15.4501 25.0728 14.7169 25.0728C13.9837 25.0728 13.3893 25.6671 13.3893 26.4003C13.3893 27.1335 13.9837 27.7279 14.7169 27.7279Z" fill="#F14B8F"/>
<path d="M18.2066 22.9105C18.9398 22.9105 19.5342 22.3162 19.5342 21.583C19.5342 20.8498 18.9398 20.2554 18.2066 20.2554C17.4734 20.2554 16.8791 20.8498 16.8791 21.583C16.8791 22.3162 17.4734 22.9105 18.2066 22.9105Z" fill="#F14B8F"/>
<path d="M22.379 18.6434C23.0493 18.6434 23.5927 18.1 23.5927 17.4296C23.5927 16.7593 23.0493 16.2158 22.379 16.2158C21.7086 16.2158 21.1652 16.7593 21.1652 17.4296C21.1652 18.1 21.7086 18.6434 22.379 18.6434Z" fill="#F14B8F"/>
<path d="M27.1583 15.3812C27.8287 15.3812 28.3721 14.8378 28.3721 14.1674C28.3721 13.497 27.8287 12.9536 27.1583 12.9536C26.488 12.9536 25.9445 13.497 25.9445 14.1674C25.9445 14.8378 26.488 15.3812 27.1583 15.3812Z" fill="#F14B8F"/>
<path d="M32.5634 12.8778C33.2338 12.8778 33.7772 12.3343 33.7772 11.664C33.7772 10.9936 33.2338 10.4502 32.5634 10.4502C31.893 10.4502 31.3496 10.9936 31.3496 11.664C31.3496 12.3343 31.893 12.8778 32.5634 12.8778Z" fill="#F14B8F"/>
<path d="M38.4427 11.3607C39.113 11.3607 39.6565 10.8173 39.6565 10.1469C39.6565 9.47654 39.113 8.93311 38.4427 8.93311C37.7723 8.93311 37.2289 9.47654 37.2289 10.1469C37.2289 10.8173 37.7723 11.3607 38.4427 11.3607Z" fill="#F14B8F" fill-opacity="0.7"/>
<path d="M44.0376 10.7347C44.6451 10.7347 45.1376 10.2422 45.1376 9.63467C45.1376 9.02716 44.6451 8.53467 44.0376 8.53467C43.4301 8.53467 42.9376 9.02716 42.9376 9.63467C42.9376 10.2422 43.4301 10.7347 44.0376 10.7347Z" fill="#F14B8F" fill-opacity="0.6"/>
<path d="M50.2207 11.2469C50.8282 11.2469 51.3207 10.7544 51.3207 10.1469C51.3207 9.53936 50.8282 9.04688 50.2207 9.04688C49.6132 9.04688 49.1207 9.53936 49.1207 10.1469C49.1207 10.7544 49.6132 11.2469 50.2207 11.2469Z" fill="#F14B8F" fill-opacity="0.5"/>
<path d="M55.9102 12.5554C56.4548 12.5554 56.8964 12.1139 56.8964 11.5692C56.8964 11.0245 56.4548 10.583 55.9102 10.583C55.3655 10.583 54.924 11.0245 54.924 11.5692C54.924 12.1139 55.3655 12.5554 55.9102 12.5554Z" fill="#F14B8F" fill-opacity="0.45"/>
<path d="M61.2395 14.907C61.7841 14.907 62.2257 14.4654 62.2257 13.9208C62.2257 13.3761 61.7841 12.9346 61.2395 12.9346C60.6948 12.9346 60.2533 13.3761 60.2533 13.9208C60.2533 14.4654 60.6948 14.907 61.2395 14.907Z" fill="#F14B8F" fill-opacity="0.4"/>
<path d="M66.1702 18.4158C66.7149 18.4158 67.1564 17.9742 67.1564 17.4296C67.1564 16.8849 66.7149 16.4434 66.1702 16.4434C65.6256 16.4434 65.1841 16.8849 65.1841 17.4296C65.1841 17.9742 65.6256 18.4158 66.1702 18.4158Z" fill="#F14B8F" fill-opacity="0.35"/>
<path d="M70.4186 22.3983C70.9214 22.3983 71.3289 21.9908 71.3289 21.488C71.3289 20.9852 70.9214 20.5776 70.4186 20.5776C69.9158 20.5776 69.5082 20.9852 69.5082 21.488C69.5082 21.9908 69.9158 22.3983 70.4186 22.3983Z" fill="#F14B8F" fill-opacity="0.3"/>
<path d="M73.8327 27.0259C74.2935 27.0259 74.6672 26.6523 74.6672 26.1914C74.6672 25.7305 74.2935 25.3569 73.8327 25.3569C73.3718 25.3569 72.9982 25.7305 72.9982 26.1914C72.9982 26.6523 73.3718 27.0259 73.8327 27.0259Z" fill="#F14B8F" fill-opacity="0.25"/>
<path d="M76.7909 32.2607C77.1261 32.2607 77.3978 31.989 77.3978 31.6538C77.3978 31.3186 77.1261 31.0469 76.7909 31.0469C76.4557 31.0469 76.184 31.3186 76.184 31.6538C76.184 31.989 76.4557 32.2607 76.7909 32.2607Z" fill="#F14B8F" fill-opacity="0.2"/>
<path d="M78.4219 38.0072C78.7571 38.0072 79.0288 37.7355 79.0288 37.4003C79.0288 37.0652 78.7571 36.7935 78.4219 36.7935C78.0867 36.7935 77.815 37.0652 77.815 37.4003C77.815 37.7355 78.0867 38.0072 78.4219 38.0072Z" fill="#F14B8F" fill-opacity="0.15"/>
<path d="M79.0289 44.6828C79.2803 44.6828 79.4841 44.479 79.4841 44.2276C79.4841 43.9762 79.2803 43.7725 79.0289 43.7725C78.7775 43.7725 78.5737 43.9762 78.5737 44.2276C78.5737 44.479 78.7775 44.6828 79.0289 44.6828Z" fill="#F14B8F" fill-opacity="0.1"/>
<path d="M6.54313 41.8947C7.4544 41.8947 8.19313 41.156 8.19313 40.2447C8.19313 39.3335 7.4544 38.5947 6.54313 38.5947C5.63186 38.5947 4.89313 39.3335 4.89313 40.2447C4.89313 41.156 5.63186 41.8947 6.54313 41.8947Z" fill="#FFAC60"/>
<path d="M7.64306 35.0293C8.50196 35.0293 9.19824 34.333 9.19824 33.4741C9.19824 32.6152 8.50196 31.9189 7.64306 31.9189C6.78417 31.9189 6.08789 32.6152 6.08789 33.4741C6.08789 34.333 6.78417 35.0293 7.64306 35.0293Z" fill="#FFAC60"/>
<path d="M10.0327 28.9409C10.8916 28.9409 11.5879 28.2446 11.5879 27.3857C11.5879 26.5268 10.8916 25.8306 10.0327 25.8306C9.17378 25.8306 8.47751 26.5268 8.47751 27.3857C8.47751 28.2446 9.17378 28.9409 10.0327 28.9409Z" fill="#FFAC60"/>
<path d="M13.3897 23.3086C14.2486 23.3086 14.9448 22.6123 14.9448 21.7534C14.9448 20.8945 14.2486 20.1982 13.3897 20.1982C12.5308 20.1982 11.8345 20.8945 11.8345 21.7534C11.8345 22.6123 12.5308 23.3086 13.3897 23.3086Z" fill="#FFAC60"/>
<path d="M17.9415 18.2065C18.8004 18.2065 19.4967 17.5103 19.4967 16.6514C19.4967 15.7925 18.8004 15.0962 17.9415 15.0962C17.0826 15.0962 16.3864 15.7925 16.3864 16.6514C16.3864 17.5103 17.0826 18.2065 17.9415 18.2065Z" fill="#FFAC60"/>
<path d="M22.4743 14.2241C23.2704 14.2241 23.9157 13.5787 23.9157 12.7827C23.9157 11.9866 23.2704 11.3413 22.4743 11.3413C21.6783 11.3413 21.033 11.9866 21.033 12.7827C21.033 13.5787 21.6783 14.2241 22.4743 14.2241Z" fill="#FFAC60"/>
<path d="M28.3345 10.6962C29.0677 10.6962 29.662 10.1018 29.662 9.3686C29.662 8.6354 29.0677 8.04102 28.3345 8.04102C27.6012 8.04102 27.0069 8.6354 27.0069 9.3686C27.0069 10.1018 27.6012 10.6962 28.3345 10.6962Z" fill="#FFAC60"/>
<path d="M34.5171 8.47744C35.2503 8.47744 35.8447 7.88306 35.8447 7.14985C35.8447 6.41665 35.2503 5.82227 34.5171 5.82227C33.7839 5.82227 33.1895 6.41665 33.1895 7.14985C33.1895 7.88306 33.7839 8.47744 34.5171 8.47744Z" fill="#FFAC60" fill-opacity="0.7"/>
<path d="M41.0413 7.14975C41.7116 7.14975 42.2551 6.60632 42.2551 5.93596C42.2551 5.2656 41.7116 4.72217 41.0413 4.72217C40.3709 4.72217 39.8275 5.2656 39.8275 5.93596C39.8275 6.60632 40.3709 7.14975 41.0413 7.14975Z" fill="#FFAC60" fill-opacity="0.6"/>
<path d="M47.7551 6.8463C48.3416 6.8463 48.8172 6.3708 48.8172 5.78424C48.8172 5.19767 48.3416 4.72217 47.7551 4.72217C47.1685 4.72217 46.693 5.19767 46.693 5.78424C46.693 6.3708 47.1685 6.8463 47.7551 6.8463Z" fill="#FFAC60" fill-opacity="0.5"/>
<path d="M54.3174 7.83228C54.862 7.83228 55.3036 7.39074 55.3036 6.84607C55.3036 6.3014 54.862 5.85986 54.3174 5.85986C53.7727 5.85986 53.3312 6.3014 53.3312 6.84607C53.3312 7.39074 53.7727 7.83228 54.3174 7.83228Z" fill="#FFAC60" fill-opacity="0.5"/>
<path d="M60.576 10.0702C61.0788 10.0702 61.4864 9.66263 61.4864 9.15986C61.4864 8.65709 61.0788 8.24951 60.576 8.24951C60.0732 8.24951 59.6656 8.65709 59.6656 9.15986C59.6656 9.66263 60.0732 10.0702 60.576 10.0702Z" fill="#FFAC60" fill-opacity="0.4"/>
<path d="M66.038 13.2948C66.5408 13.2948 66.9484 12.8872 66.9484 12.3845C66.9484 11.8817 66.5408 11.4741 66.038 11.4741C65.5353 11.4741 65.1277 11.8817 65.1277 12.3845C65.1277 12.8872 65.5353 13.2948 66.038 13.2948Z" fill="#FFAC60" fill-opacity="0.35"/>
<path d="M71.3293 17.296C71.7483 17.296 72.0879 16.9564 72.0879 16.5374C72.0879 16.1185 71.7483 15.7788 71.3293 15.7788C70.9103 15.7788 70.5707 16.1185 70.5707 16.5374C70.5707 16.9564 70.9103 17.296 71.3293 17.296Z" fill="#FFAC60" fill-opacity="0.3"/>
<path d="M75.5395 22.1515C75.9585 22.1515 76.2981 21.8119 76.2981 21.3929C76.2981 20.9739 75.9585 20.6343 75.5395 20.6343C75.1205 20.6343 74.7809 20.9739 74.7809 21.3929C74.7809 21.8119 75.1205 22.1515 75.5395 22.1515Z" fill="#FFAC60" fill-opacity="0.25"/>
<path d="M79.2191 27.9739C79.5962 27.9739 79.9018 27.6682 79.9018 27.2912C79.9018 26.9141 79.5962 26.6084 79.2191 26.6084C78.842 26.6084 78.5363 26.9141 78.5363 27.2912C78.5363 27.6682 78.842 27.9739 79.2191 27.9739Z" fill="#FFAC60" fill-opacity="0.2"/>
<path d="M81.5517 33.8721C81.845 33.8721 82.0827 33.6344 82.0827 33.3411C82.0827 33.0478 81.845 32.8101 81.5517 32.8101C81.2584 32.8101 81.0206 33.0478 81.0206 33.3411C81.0206 33.6344 81.2584 33.8721 81.5517 33.8721Z" fill="#FFAC60" fill-opacity="0.15"/>
<path d="M82.6137 38.2911C82.907 38.2911 83.1447 38.0533 83.1447 37.76C83.1447 37.4668 82.907 37.229 82.6137 37.229C82.3204 37.229 82.0826 37.4668 82.0826 37.76C82.0826 38.0533 82.3204 38.2911 82.6137 38.2911Z" fill="#FFAC60" fill-opacity="0.1"/>
<path d="M82.9931 42.274C83.2864 42.274 83.5241 42.0362 83.5241 41.743C83.5241 41.4497 83.2864 41.2119 82.9931 41.2119C82.6998 41.2119 82.462 41.4497 82.462 41.743C82.462 42.0362 82.6998 42.274 82.9931 42.274Z" fill="#FFAC60" fill-opacity="0.1"/>
<path d="M2.01018 44.7586C3.10999 44.7586 4.00156 43.8671 4.00156 42.7673C4.00156 41.6674 3.10999 40.7759 2.01018 40.7759C0.91037 40.7759 0.0187988 41.6674 0.0187988 42.7673C0.0187988 43.8671 0.91037 44.7586 2.01018 44.7586Z" fill="#FFD260"/>
<path d="M87.2412 39.6377C87.5345 39.6377 87.7722 39.4 87.7722 39.1067C87.7722 38.8134 87.5345 38.5757 87.2412 38.5757C86.9479 38.5757 86.7101 38.8134 86.7101 39.1067C86.7101 39.4 86.9479 39.6377 87.2412 39.6377Z" fill="#FFAC60" fill-opacity="0.1"/>
<path d="M2.88251 38.0825C3.97184 38.0825 4.85492 37.1994 4.85492 36.1101C4.85492 35.0208 3.97184 34.1377 2.88251 34.1377C1.79318 34.1377 0.910095 35.0208 0.910095 36.1101C0.910095 37.1994 1.79318 38.0825 2.88251 38.0825Z" fill="#FFD260"/>
<path d="M4.72218 30.9138C5.72772 30.9138 6.54287 30.0987 6.54287 29.0931C6.54287 28.0876 5.72772 27.2725 4.72218 27.2725C3.71664 27.2725 2.90149 28.0876 2.90149 29.0931C2.90149 30.0987 3.71664 30.9138 4.72218 30.9138Z" fill="#FFD260"/>
<path d="M7.81361 24.5032C8.81915 24.5032 9.6343 23.688 9.6343 22.6825C9.6343 21.677 8.81915 20.8618 7.81361 20.8618C6.80807 20.8618 5.99292 21.677 5.99292 22.6825C5.99292 23.688 6.80807 24.5032 7.81361 24.5032Z" fill="#FFD260"/>
<path d="M12.0242 18.245C12.9878 18.245 13.769 17.4638 13.769 16.5002C13.769 15.5366 12.9878 14.7554 12.0242 14.7554C11.0605 14.7554 10.2794 15.5366 10.2794 16.5002C10.2794 17.4638 11.0605 18.245 12.0242 18.245Z" fill="#FFD260"/>
<path d="M17.0879 12.9914C17.9678 12.9914 18.681 12.2781 18.681 11.3983C18.681 10.5184 17.9678 9.80518 17.0879 9.80518C16.2081 9.80518 15.4948 10.5184 15.4948 11.3983C15.4948 12.2781 16.2081 12.9914 17.0879 12.9914Z" fill="#FFD260"/>
<path d="M23.4411 8.53448C24.2791 8.53448 24.9584 7.85519 24.9584 7.01724C24.9584 6.17929 24.2791 5.5 23.4411 5.5C22.6032 5.5 21.9239 6.17929 21.9239 7.01724C21.9239 7.85519 22.6032 8.53448 23.4411 8.53448Z" fill="#FFD260"/>
<path d="M30.4395 5.23432C31.2355 5.23432 31.8809 4.58899 31.8809 3.79294C31.8809 2.99689 31.2355 2.35156 30.4395 2.35156C29.6434 2.35156 28.9981 2.99689 28.9981 3.79294C28.9981 4.58899 29.6434 5.23432 30.4395 5.23432Z" fill="#FFD260" fill-opacity="0.7"/>
<path d="M37.3809 3.20529C38.0931 3.20529 38.6705 2.62789 38.6705 1.91563C38.6705 1.20337 38.0931 0.625977 37.3809 0.625977C36.6686 0.625977 36.0912 1.20337 36.0912 1.91563C36.0912 2.62789 36.6686 3.20529 37.3809 3.20529Z" fill="#FFD260" fill-opacity="0.6"/>
<path d="M44.5876 2.54136C45.258 2.54136 45.8014 1.99792 45.8014 1.32756C45.8014 0.657204 45.258 0.11377 44.5876 0.11377C43.9172 0.11377 43.3738 0.657204 43.3738 1.32756C43.3738 1.99792 43.9172 2.54136 44.5876 2.54136Z" fill="#FFD260" fill-opacity="0.5"/>
<path d="M52.1172 3.14842C52.7457 3.14842 53.2551 2.63895 53.2551 2.01049C53.2551 1.38203 52.7457 0.872559 52.1172 0.872559C51.4887 0.872559 50.9793 1.38203 50.9793 2.01049C50.9793 2.63895 51.4887 3.14842 52.1172 3.14842Z" fill="#FFD260" fill-opacity="0.45"/>
<path d="M58.3756 4.89305C59.0041 4.89305 59.5136 4.38358 59.5136 3.75512C59.5136 3.12666 59.0041 2.61719 58.3756 2.61719C57.7472 2.61719 57.2377 3.12666 57.2377 3.75512C57.2377 4.38358 57.7472 4.89305 58.3756 4.89305Z" fill="#FFD260" fill-opacity="0.4"/>
<path d="M65.0326 7.64331C65.5772 7.64331 66.0188 7.20177 66.0188 6.6571C66.0188 6.11244 65.5772 5.6709 65.0326 5.6709C64.4879 5.6709 64.0464 6.11244 64.0464 6.6571C64.0464 7.20177 64.4879 7.64331 65.0326 7.64331Z" fill="#FFD260" fill-opacity="0.35"/>
<path d="M71.2533 11.4741C71.7142 11.4741 72.0878 11.1005 72.0878 10.6397C72.0878 10.1788 71.7142 9.80518 71.2533 9.80518C70.7924 9.80518 70.4188 10.1788 70.4188 10.6397C70.4188 11.1005 70.7924 11.4741 71.2533 11.4741Z" fill="#FFD260" fill-opacity="0.3"/>
<path d="M76.7724 16.6896C77.1913 16.6896 77.531 16.35 77.531 15.931C77.531 15.512 77.1913 15.1724 76.7724 15.1724C76.3534 15.1724 76.0137 15.512 76.0137 15.931C76.0137 16.35 76.3534 16.6896 76.7724 16.6896Z" fill="#FFD260" fill-opacity="0.25"/>
<path d="M81.21 22.9103C81.629 22.9103 81.9687 22.5707 81.9687 22.1517C81.9687 21.7327 81.629 21.3931 81.21 21.3931C80.7911 21.3931 80.4514 21.7327 80.4514 22.1517C80.4514 22.5707 80.7911 22.9103 81.21 22.9103Z" fill="#FFD260" fill-opacity="0.2"/>
<path d="M84.3773 29.3396C84.7544 29.3396 85.06 29.034 85.06 28.6569C85.06 28.2798 84.7544 27.9741 84.3773 27.9741C84.0002 27.9741 83.6945 28.2798 83.6945 28.6569C83.6945 29.034 84.0002 29.3396 84.3773 29.3396Z" fill="#FFD260" fill-opacity="0.15"/>
<path d="M86.1032 34.3085C86.4383 34.3085 86.7101 34.0368 86.7101 33.7016C86.7101 33.3664 86.4383 33.0947 86.1032 33.0947C85.768 33.0947 85.4962 33.3664 85.4962 33.7016C85.4962 34.0368 85.768 34.3085 86.1032 34.3085Z" fill="#FFD260" fill-opacity="0.1"/>
<path d="M67.2516 59.8931C67.7439 59.8931 68.143 59.494 68.143 59.0017C68.143 58.5094 67.7439 58.1104 67.2516 58.1104C66.7593 58.1104 66.3602 58.5094 66.3602 59.0017C66.3602 59.494 66.7593 59.8931 67.2516 59.8931Z" fill="#E01974"/>
<path d="M69.3376 55.7967C69.8823 55.7967 70.3238 55.3551 70.3238 54.8104C70.3238 54.2658 69.8823 53.8242 69.3376 53.8242C68.793 53.8242 68.3514 54.2658 68.3514 54.8104C68.3514 55.3551 68.793 55.7967 69.3376 55.7967Z" fill="#E01974"/>
<path d="M64.6723 63.2877C65.1646 63.2877 65.5636 62.8886 65.5636 62.3963C65.5636 61.904 65.1646 61.5049 64.6723 61.5049C64.18 61.5049 63.7809 61.904 63.7809 62.3963C63.7809 62.8886 64.18 63.2877 64.6723 63.2877Z" fill="#E01974"/>
<path d="M61.4101 66.3604C61.9024 66.3604 62.3015 65.9613 62.3015 65.469C62.3015 64.9767 61.9024 64.5776 61.4101 64.5776C60.9178 64.5776 60.5187 64.9767 60.5187 65.469C60.5187 65.9613 60.9178 66.3604 61.4101 66.3604Z" fill="#E01974"/>
<path d="M57.712 69.0342C58.1414 69.0342 58.4896 68.6861 58.4896 68.2566C58.4896 67.8271 58.1414 67.479 57.712 67.479C57.2825 67.479 56.9344 67.8271 56.9344 68.2566C56.9344 68.6861 57.2825 69.0342 57.712 69.0342Z" fill="#E01974"/>
<path d="M53.179 71.0635C53.6085 71.0635 53.9566 70.7154 53.9566 70.2859C53.9566 69.8564 53.6085 69.5083 53.179 69.5083C52.7496 69.5083 52.4014 69.8564 52.4014 70.2859C52.4014 70.7154 52.7496 71.0635 53.179 71.0635Z" fill="#E01974"/>
<path d="M48.7033 72.126C49.1328 72.126 49.4809 71.7779 49.4809 71.3484C49.4809 70.9189 49.1328 70.5708 48.7033 70.5708C48.2739 70.5708 47.9257 70.9189 47.9257 71.3484C47.9257 71.7779 48.2739 72.126 48.7033 72.126Z" fill="#E01974"/>
<path d="M44.2273 72.4673C44.6567 72.4673 45.0048 72.1192 45.0048 71.6897C45.0048 71.2602 44.6567 70.9121 44.2273 70.9121C43.7978 70.9121 43.4497 71.2602 43.4497 71.6897C43.4497 72.1192 43.7978 72.4673 44.2273 72.4673Z" fill="#E01974" fill-opacity="0.6"/>
<path d="M40.2433 71.464C40.3121 71.0401 40.0242 70.6407 39.6003 70.5719C39.1764 70.5031 38.777 70.791 38.7082 71.2149C38.6394 71.6388 38.9272 72.0382 39.3511 72.107C39.7751 72.1758 40.1745 71.8879 40.2433 71.464Z" fill="#E01974" fill-opacity="0.6"/>
<path d="M34.707 70.9121C35.1365 70.9121 35.4846 70.564 35.4846 70.1345C35.4846 69.7051 35.1365 69.3569 34.707 69.3569C34.2776 69.3569 33.9294 69.7051 33.9294 70.1345C33.9294 70.564 34.2776 70.9121 34.707 70.9121Z" fill="#E01974" fill-opacity="0.5"/>
<path d="M30.4203 68.9204C30.8498 68.9204 31.1979 68.5723 31.1979 68.1428C31.1979 67.7134 30.8498 67.3652 30.4203 67.3652C29.9909 67.3652 29.6427 67.7134 29.6427 68.1428C29.6427 68.5723 29.9909 68.9204 30.4203 68.9204Z" fill="#E01974" fill-opacity="0.45"/>
<path d="M26.5708 66.3032C27.0002 66.3032 27.3484 65.9551 27.3484 65.5256C27.3484 65.0962 27.0002 64.748 26.5708 64.748C26.1413 64.748 25.7932 65.0962 25.7932 65.5256C25.7932 65.9551 26.1413 66.3032 26.5708 66.3032Z" fill="#E01974" fill-opacity="0.4"/>
<path d="M23.1378 62.9653C23.5672 62.9653 23.9154 62.6172 23.9154 62.1877C23.9154 61.7583 23.5672 61.4102 23.1378 61.4102C22.7083 61.4102 22.3602 61.7583 22.3602 62.1877C22.3602 62.6172 22.7083 62.9653 23.1378 62.9653Z" fill="#E01974" fill-opacity="0.35"/>
<path d="M17.9413 54.6397C18.2346 54.6397 18.4723 54.4019 18.4723 54.1087C18.4723 53.8154 18.2346 53.5776 17.9413 53.5776C17.648 53.5776 17.4102 53.8154 17.4102 54.1087C17.4102 54.4019 17.648 54.6397 17.9413 54.6397Z" fill="#E01974" fill-opacity="0.25"/>
<path d="M16.6516 50.0879C16.9449 50.0879 17.1827 49.8502 17.1827 49.5569C17.1827 49.2636 16.9449 49.0259 16.6516 49.0259C16.3584 49.0259 16.1206 49.2636 16.1206 49.5569C16.1206 49.8502 16.3584 50.0879 16.6516 50.0879Z" fill="#E01974" fill-opacity="0.2"/>
<path d="M15.9688 44.9105C16.1783 44.9105 16.3481 44.7406 16.3481 44.5312C16.3481 44.3217 16.1783 44.1519 15.9688 44.1519C15.7593 44.1519 15.5895 44.3217 15.5895 44.5312C15.5895 44.7406 15.7593 44.9105 15.9688 44.9105Z" fill="#E01974" fill-opacity="0.15"/>
<path d="M16.3481 39.4482C16.5157 39.4482 16.6515 39.3123 16.6515 39.1448C16.6515 38.9772 16.5157 38.8413 16.3481 38.8413C16.1805 38.8413 16.0446 38.9772 16.0446 39.1448C16.0446 39.3123 16.1805 39.4482 16.3481 39.4482Z" fill="#FFD260" fill-opacity="0.1"/>
<path d="M20.1411 59.0204C20.4763 59.0204 20.748 58.7487 20.748 58.4135C20.748 58.0784 20.4763 57.8066 20.1411 57.8066C19.806 57.8066 19.5342 58.0784 19.5342 58.4135C19.5342 58.7487 19.806 59.0204 20.1411 59.0204Z" fill="#EE2C7B" fill-opacity="0.25"/>
<path d="M73.112 53.9188C73.8452 53.9188 74.4396 53.3245 74.4396 52.5913C74.4396 51.8581 73.8452 51.2637 73.112 51.2637C72.3788 51.2637 71.7845 51.8581 71.7845 52.5913C71.7845 53.3245 72.3788 53.9188 73.112 53.9188Z" fill="#EE2C7B"/>
<path d="M71.4241 58.6981C72.0944 58.6981 72.6378 58.1547 72.6378 57.4843C72.6378 56.8139 72.0944 56.2705 71.4241 56.2705C70.7537 56.2705 70.2103 56.8139 70.2103 57.4843C70.2103 58.1547 70.7537 58.6981 71.4241 58.6981Z" fill="#EE2C7B"/>
<path d="M68.6741 63.2689C69.3444 63.2689 69.8878 62.7255 69.8878 62.0551C69.8878 61.3847 69.3444 60.8413 68.6741 60.8413C68.0037 60.8413 67.4603 61.3847 67.4603 62.0551C67.4603 62.7255 68.0037 63.2689 68.6741 63.2689Z" fill="#EE2C7B"/>
<path d="M65.3361 67.0999C66.0064 67.0999 66.5499 66.5565 66.5499 65.8862C66.5499 65.2158 66.0064 64.6724 65.3361 64.6724C64.6657 64.6724 64.1223 65.2158 64.1223 65.8862C64.1223 66.5565 64.6657 67.0999 65.3361 67.0999Z" fill="#EE2C7B"/>
<path d="M61.2582 70.5326C61.9286 70.5326 62.472 69.9891 62.472 69.3188C62.472 68.6484 61.9286 68.105 61.2582 68.105C60.5879 68.105 60.0444 68.6484 60.0444 69.3188C60.0444 69.9891 60.5879 70.5326 61.2582 70.5326Z" fill="#EE2C7B"/>
<path d="M56.7258 73.1116C57.3334 73.1116 57.8258 72.6191 57.8258 72.0116C57.8258 71.4041 57.3334 70.9116 56.7258 70.9116C56.1183 70.9116 55.6258 71.4041 55.6258 72.0116C55.6258 72.6191 56.1183 73.1116 56.7258 73.1116Z" fill="#EE2C7B"/>
<path d="M52.0791 74.7049C52.6866 74.7049 53.1791 74.2124 53.1791 73.6049C53.1791 72.9974 52.6866 72.5049 52.0791 72.5049C51.4716 72.5049 50.9791 72.9974 50.9791 73.6049C50.9791 74.2124 51.4716 74.7049 52.0791 74.7049Z" fill="#EE2C7B"/>
<path d="M46.7116 75.6531C47.2563 75.6531 47.6978 75.2115 47.6978 74.6669C47.6978 74.1222 47.2563 73.6807 46.7116 73.6807C46.1669 73.6807 45.7254 74.1222 45.7254 74.6669C45.7254 75.2115 46.1669 75.6531 46.7116 75.6531Z" fill="#EE2C7B" fill-opacity="0.7"/>
<path d="M41.4016 75.6531C41.9462 75.6531 42.3878 75.2115 42.3878 74.6669C42.3878 74.1222 41.9462 73.6807 41.4016 73.6807C40.8569 73.6807 40.4154 74.1222 40.4154 74.6669C40.4154 75.2115 40.8569 75.6531 41.4016 75.6531Z" fill="#EE2C7B" fill-opacity="0.6"/>
<path d="M36.1099 74.7048C36.6546 74.7048 37.0961 74.2633 37.0961 73.7186C37.0961 73.174 36.6546 72.7324 36.1099 72.7324C35.5653 72.7324 35.1237 73.174 35.1237 73.7186C35.1237 74.2633 35.5653 74.7048 36.1099 74.7048Z" fill="#EE2C7B" fill-opacity="0.5"/>
<path d="M31.1033 73.0171C31.5642 73.0171 31.9378 72.6435 31.9378 72.1826C31.9378 71.7218 31.5642 71.3481 31.1033 71.3481C30.6425 71.3481 30.2689 71.7218 30.2689 72.1826C30.2689 72.6435 30.6425 73.0171 31.1033 73.0171Z" fill="#EE2C7B" fill-opacity="0.45"/>
<path d="M26.5705 70.3047C27.0313 70.3047 27.405 69.9311 27.405 69.4702C27.405 69.0093 27.0313 68.6357 26.5705 68.6357C26.1096 68.6357 25.736 69.0093 25.736 69.4702C25.736 69.9311 26.1096 70.3047 26.5705 70.3047Z" fill="#EE2C7B" fill-opacity="0.4"/>
<path d="M22.5118 66.9478C22.9727 66.9478 23.3463 66.5742 23.3463 66.1133C23.3463 65.6524 22.9727 65.2788 22.5118 65.2788C22.0509 65.2788 21.6773 65.6524 21.6773 66.1133C21.6773 66.5742 22.0509 66.9478 22.5118 66.9478Z" fill="#EE2C7B" fill-opacity="0.35"/>
<path d="M18.9272 62.8896C19.2624 62.8896 19.5341 62.6179 19.5341 62.2827C19.5341 61.9475 19.2624 61.6758 18.9272 61.6758C18.5921 61.6758 18.3203 61.9475 18.3203 62.2827C18.3203 62.6179 18.5921 62.8896 18.9272 62.8896Z" fill="#EE2C7B" fill-opacity="0.3"/>
<path d="M16.0634 58.3378C16.3986 58.3378 16.6703 58.0661 16.6703 57.7309C16.6703 57.3957 16.3986 57.124 16.0634 57.124C15.7283 57.124 15.4565 57.3957 15.4565 57.7309C15.4565 58.0661 15.7283 58.3378 16.0634 58.3378Z" fill="#EE2C7B" fill-opacity="0.25"/>
<path d="M14.1479 53.2359C14.4412 53.2359 14.679 52.9981 14.679 52.7049C14.679 52.4116 14.4412 52.1738 14.1479 52.1738C13.8547 52.1738 13.6169 52.4116 13.6169 52.7049C13.6169 52.9981 13.8547 53.2359 14.1479 53.2359Z" fill="#EE2C7B" fill-opacity="0.2"/>
<path d="M12.9532 47.8878C13.2465 47.8878 13.4842 47.65 13.4842 47.3567C13.4842 47.0634 13.2465 46.8257 12.9532 46.8257C12.6599 46.8257 12.4221 47.0634 12.4221 47.3567C12.4221 47.65 12.6599 47.8878 12.9532 47.8878Z" fill="#EE2C7B" fill-opacity="0.15"/>
<path d="M12.8964 41.7049C13.1059 41.7049 13.2757 41.5351 13.2757 41.3256C13.2757 41.1161 13.1059 40.9463 12.8964 40.9463C12.6869 40.9463 12.5171 41.1161 12.5171 41.3256C12.5171 41.5351 12.6869 41.7049 12.8964 41.7049Z" fill="#FFAC60" fill-opacity="0.1"/>
<path d="M77.5878 51.4721C78.3839 51.4721 79.0292 50.8268 79.0292 50.0307C79.0292 49.2347 78.3839 48.5894 77.5878 48.5894C76.7918 48.5894 76.1465 49.2347 76.1465 50.0307C76.1465 50.8268 76.7918 51.4721 77.5878 51.4721Z" fill="#F14B8F"/>
<path d="M76.0329 57.7309C76.7661 57.7309 77.3605 57.1365 77.3605 56.4033C77.3605 55.6701 76.7661 55.0757 76.0329 55.0757C75.2997 55.0757 74.7053 55.6701 74.7053 56.4033C74.7053 57.1365 75.2997 57.7309 76.0329 57.7309Z" fill="#F14B8F"/>
<path d="M73.3017 62.9462C74.0349 62.9462 74.6293 62.3518 74.6293 61.6186C74.6293 60.8854 74.0349 60.291 73.3017 60.291C72.5685 60.291 71.9741 60.8854 71.9741 61.6186C71.9741 62.3518 72.5685 62.9462 73.3017 62.9462Z" fill="#F14B8F"/>
<path d="M69.8309 67.7636C70.5642 67.7636 71.1585 67.1692 71.1585 66.436C71.1585 65.7028 70.5642 65.1084 69.8309 65.1084C69.0977 65.1084 68.5034 65.7028 68.5034 66.436C68.5034 67.1692 69.0977 67.7636 69.8309 67.7636Z" fill="#F14B8F"/>
<path d="M65.6772 71.8221C66.3476 71.8221 66.891 71.2787 66.891 70.6083C66.891 69.938 66.3476 69.3945 65.6772 69.3945C65.0069 69.3945 64.4634 69.938 64.4634 70.6083C64.4634 71.2787 65.0069 71.8221 65.6772 71.8221Z" fill="#F14B8F"/>
<path d="M60.9741 75.1034C61.6444 75.1034 62.1879 74.56 62.1879 73.8896C62.1879 73.2192 61.6444 72.6758 60.9741 72.6758C60.3037 72.6758 59.7603 73.2192 59.7603 73.8896C59.7603 74.56 60.3037 75.1034 60.9741 75.1034Z" fill="#F14B8F"/>
<path d="M55.569 77.5115C56.2394 77.5115 56.7828 76.9681 56.7828 76.2978C56.7828 75.6274 56.2394 75.084 55.569 75.084C54.8987 75.084 54.3553 75.6274 54.3553 76.2978C54.3553 76.9681 54.8987 77.5115 55.569 77.5115Z" fill="#F14B8F"/>
<path d="M49.7085 79.0858C50.3789 79.0858 50.9223 78.5424 50.9223 77.872C50.9223 77.2016 50.3789 76.6582 49.7085 76.6582C49.0382 76.6582 48.4948 77.2016 48.4948 77.872C48.4948 78.5424 49.0382 79.0858 49.7085 79.0858Z" fill="#F14B8F" fill-opacity="0.7"/>
<path d="M44.2276 79.5223C44.8351 79.5223 45.3276 79.0298 45.3276 78.4223C45.3276 77.8147 44.8351 77.3223 44.2276 77.3223C43.6201 77.3223 43.1276 77.8147 43.1276 78.4223C43.1276 79.0298 43.6201 79.5223 44.2276 79.5223Z" fill="#F14B8F" fill-opacity="0.6"/>
<path d="M38.0259 78.972C38.6334 78.972 39.1259 78.4795 39.1259 77.872C39.1259 77.2645 38.6334 76.772 38.0259 76.772C37.4184 76.772 36.9259 77.2645 36.9259 77.872C36.9259 78.4795 37.4184 78.972 38.0259 78.972Z" fill="#F14B8F" fill-opacity="0.5"/>
<path d="M32.2222 77.4167C32.7669 77.4167 33.2084 76.9752 33.2084 76.4305C33.2084 75.8859 32.7669 75.4443 32.2222 75.4443C31.6775 75.4443 31.236 75.8859 31.236 76.4305C31.236 76.9752 31.6775 77.4167 32.2222 77.4167Z" fill="#F14B8F" fill-opacity="0.45"/>
<path d="M27.0067 74.9895C27.5513 74.9895 27.9929 74.548 27.9929 74.0033C27.9929 73.4586 27.5513 73.0171 27.0067 73.0171C26.462 73.0171 26.0204 73.4586 26.0204 74.0033C26.0204 74.548 26.462 74.9895 27.0067 74.9895Z" fill="#F14B8F" fill-opacity="0.4"/>
<path d="M22.019 71.5754C22.5636 71.5754 23.0052 71.1339 23.0052 70.5892C23.0052 70.0446 22.5636 69.603 22.019 69.603C21.4743 69.603 21.0327 70.0446 21.0327 70.5892C21.0327 71.1339 21.4743 71.5754 22.019 71.5754Z" fill="#F14B8F" fill-opacity="0.35"/>
<path d="M17.7137 67.536C18.2165 67.536 18.6241 67.1285 18.6241 66.6257C18.6241 66.1229 18.2165 65.7153 17.7137 65.7153C17.211 65.7153 16.8034 66.1229 16.8034 66.6257C16.8034 67.1285 17.211 67.536 17.7137 67.536Z" fill="#F14B8F" fill-opacity="0.3"/>
<path d="M14.376 62.7754C14.8368 62.7754 15.2104 62.4018 15.2104 61.9409C15.2104 61.4801 14.8368 61.1064 14.376 61.1064C13.9151 61.1064 13.5415 61.4801 13.5415 61.9409C13.5415 62.4018 13.9151 62.7754 14.376 62.7754Z" fill="#F14B8F" fill-opacity="0.25"/>
<path d="M11.436 56.9911C11.7712 56.9911 12.0429 56.7194 12.0429 56.3842C12.0429 56.0491 11.7712 55.7773 11.436 55.7773C11.1008 55.7773 10.8291 56.0491 10.8291 56.3842C10.8291 56.7194 11.1008 56.9911 11.436 56.9911Z" fill="#F14B8F" fill-opacity="0.2"/>
<path d="M9.80514 51.3012C10.1403 51.3012 10.412 51.0295 10.412 50.6943C10.412 50.3591 10.1403 50.0874 9.80514 50.0874C9.46996 50.0874 9.19824 50.3591 9.19824 50.6943C9.19824 51.0295 9.46996 51.3012 9.80514 51.3012Z" fill="#F14B8F" fill-opacity="0.15"/>
<path d="M9.12232 44.3601C9.3737 44.3601 9.57749 44.1563 9.57749 43.9049C9.57749 43.6535 9.3737 43.4497 9.12232 43.4497C8.87093 43.4497 8.66714 43.6535 8.66714 43.9049C8.66714 44.1563 8.87093 44.3601 9.12232 44.3601Z" fill="#F14B8F" fill-opacity="0.1"/>
<path d="M81.6084 49.5378C82.5197 49.5378 83.2584 48.7991 83.2584 47.8878C83.2584 46.9765 82.5197 46.2378 81.6084 46.2378C80.6972 46.2378 79.9584 46.9765 79.9584 47.8878C79.9584 48.7991 80.6972 49.5378 81.6084 49.5378Z" fill="#FFAC60"/>
<path d="M80.5085 56.2134C81.3674 56.2134 82.0637 55.5171 82.0637 54.6582C82.0637 53.7993 81.3674 53.103 80.5085 53.103C79.6496 53.103 78.9534 53.7993 78.9534 54.6582C78.9534 55.5171 79.6496 56.2134 80.5085 56.2134Z" fill="#FFAC60"/>
<path d="M78.1191 62.3017C78.978 62.3017 79.6742 61.6055 79.6742 60.7466C79.6742 59.8877 78.978 59.1914 78.1191 59.1914C77.2602 59.1914 76.5639 59.8877 76.5639 60.7466C76.5639 61.6055 77.2602 62.3017 78.1191 62.3017Z" fill="#FFAC60"/>
<path d="M74.7622 67.9341C75.6211 67.9341 76.3173 67.2378 76.3173 66.3789C76.3173 65.52 75.6211 64.8237 74.7622 64.8237C73.9033 64.8237 73.207 65.52 73.207 66.3789C73.207 67.2378 73.9033 67.9341 74.7622 67.9341Z" fill="#FFAC60"/>
<path d="M70.2104 73.0171C71.0693 73.0171 71.7656 72.3208 71.7656 71.4619C71.7656 70.603 71.0693 69.9067 70.2104 69.9067C69.3515 69.9067 68.6552 70.603 68.6552 71.4619C68.6552 72.3208 69.3515 73.0171 70.2104 73.0171Z" fill="#FFAC60"/>
<path d="M65.6778 76.7724C66.4738 76.7724 67.1192 76.1271 67.1192 75.331C67.1192 74.535 66.4738 73.8896 65.6778 73.8896C64.8817 73.8896 64.2364 74.535 64.2364 75.331C64.2364 76.1271 64.8817 76.7724 65.6778 76.7724Z" fill="#FFAC60"/>
<path d="M59.8175 80.0912C60.5507 80.0912 61.1451 79.4968 61.1451 78.7636C61.1451 78.0304 60.5507 77.436 59.8175 77.436C59.0843 77.436 58.4899 78.0304 58.4899 78.7636C58.4899 79.4968 59.0843 80.0912 59.8175 80.0912Z" fill="#FFAC60"/>
<path d="M53.6153 82.2909C54.3485 82.2909 54.9429 81.6965 54.9429 80.9633C54.9429 80.2301 54.3485 79.6357 53.6153 79.6357C52.8821 79.6357 52.2877 80.2301 52.2877 80.9633C52.2877 81.6965 52.8821 82.2909 53.6153 82.2909Z" fill="#FFAC60" fill-opacity="0.7"/>
<path d="M47.0914 83.41C47.7618 83.41 48.3052 82.8666 48.3052 82.1962C48.3052 81.5259 47.7618 80.9824 47.0914 80.9824C46.4211 80.9824 45.8777 81.5259 45.8777 82.1962C45.8777 82.8666 46.4211 83.41 47.0914 83.41Z" fill="#FFAC60" fill-opacity="0.6"/>
<path d="M40.3967 83.4103C40.9832 83.4103 41.4587 82.9348 41.4587 82.3482C41.4587 81.7616 40.9832 81.2861 40.3967 81.2861C39.8101 81.2861 39.3346 81.7616 39.3346 82.3482C39.3346 82.9348 39.8101 83.4103 40.3967 83.4103Z" fill="#FFAC60" fill-opacity="0.5"/>
<path d="M33.8345 82.2722C34.3791 82.2722 34.8207 81.8307 34.8207 81.286C34.8207 80.7414 34.3791 80.2998 33.8345 80.2998C33.2898 80.2998 32.8483 80.7414 32.8483 81.286C32.8483 81.8307 33.2898 82.2722 33.8345 82.2722Z" fill="#FFAC60" fill-opacity="0.5"/>
<path d="M27.5761 79.8637C28.0789 79.8637 28.4865 79.4561 28.4865 78.9533C28.4865 78.4505 28.0789 78.043 27.5761 78.043C27.0733 78.043 26.6658 78.4505 26.6658 78.9533C26.6658 79.4561 27.0733 79.8637 27.5761 79.8637Z" fill="#FFAC60" fill-opacity="0.4"/>
<path d="M22.0949 76.6396C22.5977 76.6396 23.0053 76.232 23.0053 75.7292C23.0053 75.2264 22.5977 74.8188 22.0949 74.8188C21.5922 74.8188 21.1846 75.2264 21.1846 75.7292C21.1846 76.232 21.5922 76.6396 22.0949 76.6396Z" fill="#FFAC60" fill-opacity="0.35"/>
<path d="M16.8982 72.3532C17.3172 72.3532 17.6568 72.0135 17.6568 71.5946C17.6568 71.1756 17.3172 70.8359 16.8982 70.8359C16.4792 70.8359 16.1396 71.1756 16.1396 71.5946C16.1396 72.0135 16.4792 72.3532 16.8982 72.3532Z" fill="#FFAC60" fill-opacity="0.3"/>
<path d="M12.6882 67.3844C13.1071 67.3844 13.4468 67.0448 13.4468 66.6258C13.4468 66.2068 13.1071 65.8672 12.6882 65.8672C12.2692 65.8672 11.9295 66.2068 11.9295 66.6258C11.9295 67.0448 12.2692 67.3844 12.6882 67.3844Z" fill="#FFAC60" fill-opacity="0.25"/>
<path d="M9.06539 61.4861C9.44247 61.4861 9.74815 61.1805 9.74815 60.8034C9.74815 60.4263 9.44247 60.1206 9.06539 60.1206C8.68831 60.1206 8.38263 60.4263 8.38263 60.8034C8.38263 61.1805 8.68831 61.4861 9.06539 61.4861Z" fill="#FFAC60" fill-opacity="0.2"/>
<path d="M6.67615 55.1705C6.96943 55.1705 7.20718 54.9327 7.20718 54.6394C7.20718 54.3462 6.96943 54.1084 6.67615 54.1084C6.38286 54.1084 6.14511 54.3462 6.14511 54.6394C6.14511 54.9327 6.38286 55.1705 6.67615 55.1705Z" fill="#FFAC60" fill-opacity="0.15"/>
<path d="M5.72757 50.9224C6.02085 50.9224 6.2586 50.6847 6.2586 50.3914C6.2586 50.0981 6.02085 49.8604 5.72757 49.8604C5.43428 49.8604 5.19653 50.0981 5.19653 50.3914C5.19653 50.6847 5.43428 50.9224 5.72757 50.9224Z" fill="#FFAC60" fill-opacity="0.1"/>
<path d="M5.15869 46.9205C5.45197 46.9205 5.68972 46.6827 5.68972 46.3894C5.68972 46.0962 5.45197 45.8584 5.15869 45.8584C4.86541 45.8584 4.62766 46.0962 4.62766 46.3894C4.62766 46.6827 4.86541 46.9205 5.15869 46.9205Z" fill="#FFAC60" fill-opacity="0.1"/>
<path d="M85.9136 47.2811C87.0134 47.2811 87.9049 46.3895 87.9049 45.2897C87.9049 44.1899 87.0134 43.2983 85.9136 43.2983C84.8138 43.2983 83.9222 44.1899 83.9222 45.2897C83.9222 46.3895 84.8138 47.2811 85.9136 47.2811Z" fill="#FFD260"/>
<path d="M0.891233 49.481C1.18452 49.481 1.42227 49.2432 1.42227 48.95C1.42227 48.6567 1.18452 48.4189 0.891233 48.4189C0.597951 48.4189 0.360199 48.6567 0.360199 48.95C0.360199 49.2432 0.597951 49.481 0.891233 49.481Z" fill="#FFAC60" fill-opacity="0.1"/>
<path d="M85.0601 53.9189C86.1495 53.9189 87.0325 53.0359 87.0325 51.9465C87.0325 50.8572 86.1495 49.9741 85.0601 49.9741C83.9708 49.9741 83.0877 50.8572 83.0877 51.9465C83.0877 53.0359 83.9708 53.9189 85.0601 53.9189Z" fill="#FFD260"/>
<path d="M83.2204 60.7844C84.2259 60.7844 85.0411 59.9693 85.0411 58.9638C85.0411 57.9582 84.2259 57.1431 83.2204 57.1431C82.2149 57.1431 81.3997 57.9582 81.3997 58.9638C81.3997 59.9693 82.2149 60.7844 83.2204 60.7844Z" fill="#FFD260"/>
<path d="M80.1101 67.1951C81.1157 67.1951 81.9308 66.3799 81.9308 65.3744C81.9308 64.3689 81.1157 63.5537 80.1101 63.5537C79.1046 63.5537 78.2894 64.3689 78.2894 65.3744C78.2894 66.3799 79.1046 67.1951 80.1101 67.1951Z" fill="#FFD260"/>
<path d="M75.8999 73.3017C76.8636 73.3017 77.6447 72.5205 77.6447 71.5568C77.6447 70.5932 76.8636 69.812 75.8999 69.812C74.9363 69.812 74.1551 70.5932 74.1551 71.5568C74.1551 72.5205 74.9363 73.3017 75.8999 73.3017Z" fill="#FFD260"/>
<path d="M70.836 78.2516C71.7158 78.2516 72.4291 77.5384 72.4291 76.6585C72.4291 75.7787 71.7158 75.0654 70.836 75.0654C69.9561 75.0654 69.2429 75.7787 69.2429 76.6585C69.2429 77.5384 69.9561 78.2516 70.836 78.2516Z" fill="#FFD260"/>
<path d="M64.5018 82.557C65.3398 82.557 66.0191 81.8777 66.0191 81.0397C66.0191 80.2018 65.3398 79.5225 64.5018 79.5225C63.6639 79.5225 62.9846 80.2018 62.9846 81.0397C62.9846 81.8777 63.6639 82.557 64.5018 82.557Z" fill="#FFD260"/>
<path d="M57.4842 85.705C58.2802 85.705 58.9256 85.0597 58.9256 84.2636C58.9256 83.4676 58.2802 82.8223 57.4842 82.8223C56.6881 82.8223 56.0428 83.4676 56.0428 84.2636C56.0428 85.0597 56.6881 85.705 57.4842 85.705Z" fill="#FFD260" fill-opacity="0.7"/>
<path d="M50.543 87.4309C51.2553 87.4309 51.8327 86.8535 51.8327 86.1412C51.8327 85.429 51.2553 84.8516 50.543 84.8516C49.8308 84.8516 49.2534 85.429 49.2534 86.1412C49.2534 86.8535 49.8308 87.4309 50.543 87.4309Z" fill="#FFD260" fill-opacity="0.6"/>
<path d="M43.336 87.9432C44.0063 87.9432 44.5497 87.3998 44.5497 86.7294C44.5497 86.0591 44.0063 85.5156 43.336 85.5156C42.6656 85.5156 42.1222 86.0591 42.1222 86.7294C42.1222 87.3998 42.6656 87.9432 43.336 87.9432Z" fill="#FFD260" fill-opacity="0.5"/>
<path d="M35.8068 87.1846C36.4352 87.1846 36.9447 86.6751 36.9447 86.0466C36.9447 85.4182 36.4352 84.9087 35.8068 84.9087C35.1783 84.9087 34.6688 85.4182 34.6688 86.0466C34.6688 86.6751 35.1783 87.1846 35.8068 87.1846Z" fill="#FFD260" fill-opacity="0.45"/>
<path d="M29.548 85.4399C30.1765 85.4399 30.6859 84.9305 30.6859 84.302C30.6859 83.6735 30.1765 83.1641 29.548 83.1641C28.9195 83.1641 28.4101 83.6735 28.4101 84.302C28.4101 84.9305 28.9195 85.4399 29.548 85.4399Z" fill="#FFD260" fill-opacity="0.4"/>
<path d="M22.8913 82.3865C23.4359 82.3865 23.8775 81.9449 23.8775 81.4003C23.8775 80.8556 23.4359 80.4141 22.8913 80.4141C22.3466 80.4141 21.9051 80.8556 21.9051 81.4003C21.9051 81.9449 22.3466 82.3865 22.8913 82.3865Z" fill="#FFD260" fill-opacity="0.35"/>
<path d="M16.6707 78.252C17.1316 78.252 17.5052 77.8783 17.5052 77.4175C17.5052 76.9566 17.1316 76.583 16.6707 76.583C16.2098 76.583 15.8362 76.9566 15.8362 77.4175C15.8362 77.8783 16.2098 78.252 16.6707 78.252Z" fill="#FFD260" fill-opacity="0.3"/>
<path d="M11.1518 72.8844C11.5708 72.8844 11.9104 72.5448 11.9104 72.1258C11.9104 71.7068 11.5708 71.3672 11.1518 71.3672C10.7328 71.3672 10.3932 71.7068 10.3932 72.1258C10.3932 72.5448 10.7328 72.8844 11.1518 72.8844Z" fill="#FFD260" fill-opacity="0.25"/>
<path d="M6.71373 66.7585C7.1327 66.7585 7.47235 66.4188 7.47235 65.9998C7.47235 65.5809 7.1327 65.2412 6.71373 65.2412C6.29475 65.2412 5.95511 65.5809 5.95511 65.9998C5.95511 66.4188 6.29475 66.7585 6.71373 66.7585Z" fill="#FFD260" fill-opacity="0.2"/>
<path d="M3.39476 60.1209C3.77184 60.1209 4.07752 59.8152 4.07752 59.4381C4.07752 59.0611 3.77184 58.7554 3.39476 58.7554C3.01769 58.7554 2.71201 59.0611 2.71201 59.4381C2.71201 59.8152 3.01769 60.1209 3.39476 60.1209Z" fill="#FFD260" fill-opacity="0.15"/>
<path d="M1.83938 54.9623C2.17456 54.9623 2.44628 54.6906 2.44628 54.3554C2.44628 54.0203 2.17456 53.7485 1.83938 53.7485C1.5042 53.7485 1.23248 54.0203 1.23248 54.3554C1.23248 54.6906 1.5042 54.9623 1.83938 54.9623Z" fill="#FFD260" fill-opacity="0.1"/>
</svg>
